<?xml version="1.0" encoding="UTF-8" standalone="no"?>
<!-- Generator: Adobe Illustrator 19.0.0, SVG Export Plug-In . SVG Version: 6.00 Build 0)  -->

<svg
   xmlns:dc="http://purl.org/dc/elements/1.1/"
   xmlns:cc="http://creativecommons.org/ns#"
   xmlns:rdf="http://www.w3.org/1999/02/22-rdf-syntax-ns#"
   xmlns:svg="http://www.w3.org/2000/svg"
   xmlns="http://www.w3.org/2000/svg"
   xmlns:sodipodi="http://sodipodi.sourceforge.net/DTD/sodipodi-0.dtd"
   xmlns:inkscape="http://www.inkscape.org/namespaces/inkscape"
   version="1.1"
   id="Layer_1"
   x="0px"
   y="0px"
   viewBox="0 0 492 492"
   style="enable-background:new 0 0 492 492;"
   xml:space="preserve"
   sodipodi:docname="blackClose.svg"
   inkscape:version="0.92.4 (5da689c313, 2019-01-14)"><metadata
   id="metadata43"><rdf:RDF><cc:Work
       rdf:about=""><dc:format>image/svg+xml</dc:format><dc:type
         rdf:resource="http://purl.org/dc/dcmitype/StillImage" /></cc:Work></rdf:RDF></metadata><defs
   id="defs41" /><sodipodi:namedview
   pagecolor="#ffffff"
   bordercolor="#666666"
   borderopacity="1"
   objecttolerance="10"
   gridtolerance="10"
   guidetolerance="10"
   inkscape:pageopacity="0"
   inkscape:pageshadow="2"
   inkscape:window-width="1467"
   inkscape:window-height="832"
   id="namedview39"
   showgrid="false"
   inkscape:zoom="0.4796748"
   inkscape:cx="246"
   inkscape:cy="246"
   inkscape:window-x="2488"
   inkscape:window-y="121"
   inkscape:window-maximized="0"
   inkscape:current-layer="Layer_1" />
<g
   id="g6">
	<g
   id="g4">
		<path
   d="M300.188,246L484.14,62.04c5.06-5.064,7.852-11.82,7.86-19.024c0-7.208-2.792-13.972-7.86-19.028L468.02,7.872    c-5.068-5.076-11.824-7.856-19.036-7.856c-7.2,0-13.956,2.78-19.024,7.856L246.008,191.82L62.048,7.872    c-5.06-5.076-11.82-7.856-19.028-7.856c-7.2,0-13.96,2.78-19.02,7.856L7.872,23.988c-10.496,10.496-10.496,27.568,0,38.052    L191.828,246L7.872,429.952c-5.064,5.072-7.852,11.828-7.852,19.032c0,7.204,2.788,13.96,7.852,19.028l16.124,16.116    c5.06,5.072,11.824,7.856,19.02,7.856c7.208,0,13.968-2.784,19.028-7.856l183.96-183.952l183.952,183.952    c5.068,5.072,11.824,7.856,19.024,7.856h0.008c7.204,0,13.96-2.784,19.028-7.856l16.12-16.116    c5.06-5.064,7.852-11.824,7.852-19.028c0-7.204-2.792-13.96-7.852-19.028L300.188,246z"
   id="path2" />
	</g>
</g>
<g
   id="g8">
</g>
<g
   id="g10">
</g>
<g
   id="g12">
</g>
<g
   id="g14">
</g>
<g
   id="g16">
</g>
<g
   id="g18">
</g>
<g
   id="g20">
</g>
<g
   id="g22">
</g>
<g
   id="g24">
</g>
<g
   id="g26">
</g>
<g
   id="g28">
</g>
<g
   id="g30">
</g>
<g
   id="g32">
</g>
<g
   id="g34">
</g>
<g
   id="g36">
</g>
<path
   style="fill:#cccccc;stroke:#ffffff;stroke-width:2.08474565"
   d="m 30.228814,486.99586 c -3.439831,-2.19 -11.17945,-9.22129 -17.199153,-15.62507 C 2.6758733,460.35639 2.0847458,459.13254 2.0847458,448.71067 V 437.69381 L 96.940678,342.75486 c 52.170762,-52.21639 94.855932,-95.86738 94.855932,-97.00219 0,-1.13479 -42.2396,-44.27546 -93.865782,-95.86814 C 32.060035,84.056484 3.5670254,54.214366 2.3952042,49.825424 -0.53940337,38.834133 3.0374729,30.243117 16.007011,17.132295 28.981062,4.0169115 39.245322,-0.72745819 49.323848,1.7325109 53.395111,2.7262256 85.051977,32.934071 150.62288,98.394811 L 246,193.61169 341.37712,98.394811 c 65.5709,-65.46074 97.22777,-95.6685854 101.29903,-96.6623001 10.07853,-2.45996909 20.34278,2.2844006 33.31684,15.3997841 12.96954,13.110822 16.54642,21.701838 13.6118,32.693129 -1.17181,4.388942 -29.66482,34.23106 -95.53562,100.059106 -51.62618,51.59268 -93.86578,94.73335 -93.86578,95.86814 0,1.13481 42.68517,44.7858 94.85593,97.00219 l 94.85593,94.93895 v 11.04684 c 0,10.60124 -0.48353,11.55385 -11.98728,23.61569 -14.8825,15.60449 -21.48354,19.20601 -32.49473,17.72911 -7.78037,-1.04356 -15.01619,-7.77391 -103.89801,-96.63999 L 246,297.92716 l -95.60905,95.5921 c -93.423711,93.40716 -95.81817,95.61344 -104.758471,96.52525 -6.647862,0.67802 -10.859412,-0.15552 -15.403665,-3.04865 z"
   id="path45"
   inkscape:connector-curvature="0" /><path
   style="fill:#000000;stroke:#ffffff;stroke-width:2.08474565"
   d="M 27.812593,482.68548 C 23.273073,479.39706 16.096301,472.66125 11.864208,467.717 5.1862704,459.91534 4.1694932,457.32951 4.1694932,448.14814 V 437.56883 L 88.736992,353.14628 c 46.512128,-46.4324 89.311198,-89.84116 95.109058,-96.46392 l 10.54156,-12.04137 -80.07552,-80.72982 C 4.838111,53.542676 4.1694932,52.806773 4.1694932,42.684595 c 0,-6.013331 1.8072315,-10.552785 6.8447608,-17.19287 C 19.55117,14.239023 36.074599,2.9186424 43.96233,2.9186424 c 7.377102,0 20.031666,11.7648056 125.42326,116.6045876 L 246,195.73649 322.61441,119.52323 C 428.006,14.683448 440.66057,2.9186424 448.03768,2.9186424 c 7.88771,0 24.41116,11.3203806 32.94807,22.5730826 5.02665,6.625748 6.84476,11.183813 6.84476,17.160076 0,10.186316 -0.73906,11.000729 -109.09881,120.220689 l -81.1318,81.77586 12.63249,14.12245 c 6.94786,7.76732 49.74975,51.17431 95.1153,96.45997 l 82.48282,82.33758 v 10.57954 c 0,9.18166 -1.01673,11.76739 -7.69471,19.56911 -11.09808,12.96562 -22.93585,20.94741 -31.06705,20.94741 -9.02718,0 -13.47822,-4.07898 -118.05382,-108.18566 l -84.89182,-84.51119 -93.35393,92.91935 c -51.34466,51.10564 -96.356277,94.46244 -100.025819,96.34842 -9.510473,4.88798 -15.51024,4.27434 -24.930768,-2.54985 z"
   id="path25"
   inkscape:connector-curvature="0" /></svg>