<?xml version="1.0" encoding="UTF-8" standalone="no"?>
<svg
   xmlns:dc="http://purl.org/dc/elements/1.1/"
   xmlns:cc="http://creativecommons.org/ns#"
   xmlns:rdf="http://www.w3.org/1999/02/22-rdf-syntax-ns#"
   xmlns:svg="http://www.w3.org/2000/svg"
   xmlns="http://www.w3.org/2000/svg"
   xmlns:sodipodi="http://sodipodi.sourceforge.net/DTD/sodipodi-0.dtd"
   xmlns:inkscape="http://www.inkscape.org/namespaces/inkscape"
   height="512pt"
   viewBox="-1 0 512 512"
   width="512pt"
   version="1.1"
   id="svg6"
   sodipodi:docname="emailOpen.svg"
   inkscape:version="0.92.4 (5da689c313, 2019-01-14)">
  <metadata
     id="metadata12">
    <rdf:RDF>
      <cc:Work
         rdf:about="">
        <dc:format>image/svg+xml</dc:format>
        <dc:type
           rdf:resource="http://purl.org/dc/dcmitype/StillImage" />
      </cc:Work>
    </rdf:RDF>
  </metadata>
  <defs
     id="defs10" />
  <sodipodi:namedview
     pagecolor="#ffffff"
     bordercolor="#666666"
     borderopacity="1"
     objecttolerance="10"
     gridtolerance="10"
     guidetolerance="10"
     inkscape:pageopacity="0"
     inkscape:pageshadow="2"
     inkscape:window-width="1920"
     inkscape:window-height="1023"
     id="namedview8"
     showgrid="false"
     inkscape:zoom="0.34570313"
     inkscape:cx="341.33333"
     inkscape:cy="341.33333"
     inkscape:window-x="1920"
     inkscape:window-y="28"
     inkscape:window-maximized="1"
     inkscape:current-layer="svg6" />
  <path
     d="m255 301h30c8.285156 0 15-6.714844 15-15s-6.714844-15-15-15h-30c-41.355469 0-75-33.644531-75-75v-30c0-41.355469 33.644531-75 75-75s75 33.644531 75 75v30.332031c0 21.476563-30 20.460938-30-.332031v-30c0-24.8125-20.1875-45-45-45s-45 20.1875-45 45v30c0 38.441406 45.382812 59.191406 74.4375 33.992188 27.496094 25.484374 75.5625 8.660156 75.5625-33.660157v-30.332031c0-57.898438-47.101562-105-105-105s-105 47.101562-105 105v30c0 57.898438 47.101562 105 105 105zm0-90c-8.269531 0-15-6.730469-15-15v-30c0-8.269531 6.730469-15 15-15s15 6.730469 15 15v30c0 8.269531-6.730469 15-15 15zm0 0"
     id="path2" />
  <path
     d="m505.605469 230.394531-55.605469-55.609375v-119.785156c0-30.328125-24.671875-55-55-55h-280c-30.328125 0-55 24.671875-55 55v119.785156c-.433594.433594-55.628906 55.628906-55.628906 55.628906-2.78125 2.800782-4.371094 6.640626-4.371094 10.589844v215.996094c0 30.328125 24.671875 55 55 55h400c30.328125 0 55-24.671875 55-55v-215.996094c0-4.1875-1.835938-8.140625-4.394531-10.609375zm-35.195313 7.226563-20.410156 11.480468v-31.886718zm-355.410156-207.621094h280c13.785156 0 25 11.214844 25 25v210.976562l-164.75 92.671876-165.25-92.753907c0-5.835937 0-204.566406 0-210.894531 0-13.785156 11.214844-25 25-25zm-55 219.058594-20.394531-11.449219 20.394531-20.394531zm420 207.941406c0 13.785156-11.214844 25-25 25h-400c-13.785156 0-25-11.214844-25-25v-190.378906c10.898438 6.117187 208.839844 117.21875 217.917969 122.3125 4.5625 2.5625 10.132812 2.558594 14.695312-.007813l217.386719-122.277343zm0 0"
     id="path4" />
  <path
     style="fill:#ffffff;stroke-width:2.89265537"
     d="M 57.911855,635.55842 C 42.23217,625.99696 42.086514,624.54401 42.915752,485.96907 l 0.763344,-127.56314 146.043634,82.00382 c 80.32399,45.10209 148.68538,82.00381 151.91416,82.00381 4.56701,0 161.08104,-86.26131 284.30128,-156.6901 l 15.29861,-8.7442 -0.83534,131.16913 c -0.76244,119.72121 -1.28069,131.82448 -5.93804,138.67809 -2.80651,4.12994 -8.39995,9.01129 -12.42991,10.84746 -5.37288,2.44805 -80.39309,3.33561 -281.27015,3.32768 C 77.854081,640.9912 66.461528,640.772 57.911855,635.55842 Z"
     id="path14"
     inkscape:connector-curvature="0"
     transform="matrix(0.74999998,0,0,0.74999998,-1,0)" />
  <path
     style="fill:#ffffff;stroke-width:2.89265537"
     d="M 230.97853,414.83582 123.22712,354.01904 V 207.96093 61.902825 l 9.83503,-9.835028 9.83503,-9.835029 H 341.2877 539.67823 l 9.44675,8.439069 9.44677,8.439069 0.79916,147.326284 0.79912,147.32629 -107.54505,60.46063 c -59.14978,33.25336 -108.97381,60.67839 -110.72005,60.94455 -1.74624,0.26615 -51.66312,-26.88362 -110.9264,-60.33284 z M 395.54314,396.0206 c 7.65709,-7.66273 8.36936,-22.27182 1.42487,-29.22501 -3.918,-3.92291 -12.50965,-5.26678 -42.24508,-6.60793 -34.32425,-1.54809 -38.82877,-2.42292 -55.99834,-10.87546 -21.81652,-10.74025 -37.17821,-26.56966 -47.82965,-49.28595 -7.13716,-15.22141 -7.62262,-18.92803 -7.62262,-58.20026 0,-40.11032 0.36405,-42.73169 8.32946,-59.97722 9.67347,-20.94353 30.00559,-41.48374 50.34161,-50.85682 10.79468,-4.97538 19.08404,-6.29232 39.67921,-6.30389 22.67589,-0.0127 28.16161,1.03023 42.52959,8.08587 20.43321,10.03408 40.56101,31.85238 48.18668,52.23383 6.65025,17.77442 10.65377,56.49157 7.80549,75.4853 -2.59691,17.31741 -11.77641,24.31503 -24.81291,18.91514 -10.1906,-4.22109 -10.84282,-6.58657 -12.35617,-44.81385 -1.22539,-30.95318 -6.24957,-45.71433 -19.89031,-58.43821 -23.14163,-21.58615 -64.76588,-19.72923 -86.90933,3.87716 -11.92306,12.71078 -16.74732,30.00963 -16.729,59.98688 0.0266,43.67463 8.26945,61.55969 34.49427,74.84536 19.73918,9.99999 35.15499,10.26497 53.61073,0.92148 l 13.89257,-7.03331 8.53493,6.31015 c 7.06199,5.22116 12.44377,6.31015 31.18465,6.31015 20.4853,0 23.84833,-0.83296 35.19269,-8.71665 7.33337,-5.0963 15.24617,-14.06124 19.05143,-21.58468 5.76179,-11.39174 6.50847,-17.20809 6.50847,-50.6982 0,-58.88738 -9.60622,-86.12169 -41.91715,-118.83825 -75.17944,-76.123193 -202.74514,-42.339506 -234.76329,62.17322 -2.55205,8.33031 -3.90713,28.03858 -3.90713,56.82525 0,51.23364 4.36788,70.24466 22.63126,98.50166 14.28566,22.1027 31.49532,36.96788 57.01953,49.25171 23.91434,11.5091 44.90983,15.26298 81.53906,14.57873 23.23215,-0.43402 27.50138,-1.31906 33.02448,-6.8462 z"
     id="path16"
     inkscape:connector-curvature="0"
     transform="matrix(0.74999998,0,0,0.74999998,-1,0)" />
  <path
     style="fill:#ffffff;stroke-width:2.89265537"
     d="m 67.197338,322.31043 -11.193621,-5.7688 11.193621,-11.50069 11.193622,-11.5007 0.906439,8.85474 c 0.498541,4.87011 0.498541,12.64138 0,17.26949 l -0.906439,8.41476 z"
     id="path18"
     inkscape:connector-curvature="0"
     transform="matrix(0.74999998,0,0,0.74999998,-1,0)" />
  <path
     style="fill:#ffffff;stroke-width:2.89265537"
     d="m 603.40791,310.72145 v -18.00178 l 11.57062,11.29841 c 6.36384,6.21412 11.57062,11.65862 11.57062,12.09889 0,0.44026 -5.20678,3.45678 -11.57062,6.70337 l -11.57062,5.90289 z"
     id="path20"
     inkscape:connector-curvature="0"
     transform="matrix(0.74999998,0,0,0.74999998,-1,0)" />
  <path
     style="fill:#ffffff;stroke-width:2.89265537"
     d="m 328.60565,273.6452 c -4.95987,-4.95988 -5.78531,-9.64219 -5.78531,-32.81721 0,-30.06239 3.74849,-37.32969 19.25478,-37.32969 13.88426,0 18.34974,9.40517 18.34974,38.64815 0,28.47872 -4.44051,37.28406 -18.80226,37.28406 -3.9774,0 -9.83503,-2.60339 -13.01695,-5.78531 z"
     id="path12"
     inkscape:connector-curvature="0"
     transform="matrix(0.74999998,0,0,0.74999998,-1,0)" />
</svg>
