<?xml version="1.0" encoding="UTF-8" standalone="no"?>
<svg
   xmlns:dc="http://purl.org/dc/elements/1.1/"
   xmlns:cc="http://creativecommons.org/ns#"
   xmlns:rdf="http://www.w3.org/1999/02/22-rdf-syntax-ns#"
   xmlns:svg="http://www.w3.org/2000/svg"
   xmlns="http://www.w3.org/2000/svg"
   xmlns:sodipodi="http://sodipodi.sourceforge.net/DTD/sodipodi-0.dtd"
   xmlns:inkscape="http://www.inkscape.org/namespaces/inkscape"
   id="Capa_1"
   enable-background="new 0 0 479.058 479.058"
   height="512"
   viewBox="0 0 479.058 479.058"
   width="512"
   version="1.1"
   sodipodi:docname="email.svg"
   inkscape:version="0.92.4 (5da689c313, 2019-01-14)">
  <metadata
     id="metadata9">
    <rdf:RDF>
      <cc:Work
         rdf:about="">
        <dc:format>image/svg+xml</dc:format>
        <dc:type
           rdf:resource="http://purl.org/dc/dcmitype/StillImage" />
      </cc:Work>
    </rdf:RDF>
  </metadata>
  <defs
     id="defs7" />
  <sodipodi:namedview
     pagecolor="#ffffff"
     bordercolor="#666666"
     borderopacity="1"
     objecttolerance="10"
     gridtolerance="10"
     guidetolerance="10"
     inkscape:pageopacity="0"
     inkscape:pageshadow="2"
     inkscape:window-width="1920"
     inkscape:window-height="1023"
     id="namedview5"
     showgrid="false"
     inkscape:zoom="0.4609375"
     inkscape:cx="256"
     inkscape:cy="256"
     inkscape:window-x="1920"
     inkscape:window-y="28"
     inkscape:window-maximized="1"
     inkscape:current-layer="Capa_1" />
  <path
     d="m434.146 59.882h-389.234c-24.766 0-44.912 20.146-44.912 44.912v269.47c0 24.766 20.146 44.912 44.912 44.912h389.234c24.766 0 44.912-20.146 44.912-44.912v-269.47c0-24.766-20.146-44.912-44.912-44.912zm0 29.941c2.034 0 3.969.422 5.738 1.159l-200.355 173.649-200.356-173.649c1.769-.736 3.704-1.159 5.738-1.159zm0 299.411h-389.234c-8.26 0-14.971-6.71-14.971-14.971v-251.648l199.778 173.141c2.822 2.441 6.316 3.655 9.81 3.655s6.988-1.213 9.81-3.655l199.778-173.141v251.649c-.001 8.26-6.711 14.97-14.971 14.97z"
     id="path2" />
  <path
     style="fill:#ffffff;stroke-width:2.16949153"
     d="m 39.338262,410.79322 -5.595221,-4.88136 0.592886,-135.43682 0.592887,-135.43683 83.525426,72.39887 c 45.93898,39.81937 94.01737,81.48459 106.84087,92.58937 19.62075,16.99099 24.49086,20.1905 30.73279,20.1905 6.66058,0 18.39273,-9.51741 114.98965,-93.28236 l 107.57228,-93.28237 v 136.51474 136.51473 l -5.71631,4.49644 c -5.69407,4.47896 -6.537,4.49645 -216.82816,4.49645 H 44.933483 Z"
     id="path11"
     inkscape:connector-curvature="0"
     transform="scale(0.93566016)" />
  <path
     style="fill:#ffffff;stroke-width:2.16949153"
     d="M 150.0186,189.4286 44.307705,97.844068 150.96966,97.281155 c 58.66408,-0.309601 153.95385,-0.309601 211.75503,0 l 105.09305,0.562913 -100.05986,86.779662 c -55.0329,47.72881 -102.75275,88.94185 -106.04411,91.58453 l -5.98427,4.80487 z"
     id="path13"
     inkscape:connector-curvature="0"
     transform="scale(0.93566016)" />
</svg>
