<?xml version="1.0" encoding="UTF-8" standalone="no"?>
<svg
   xmlns:dc="http://purl.org/dc/elements/1.1/"
   xmlns:cc="http://creativecommons.org/ns#"
   xmlns:rdf="http://www.w3.org/1999/02/22-rdf-syntax-ns#"
   xmlns:svg="http://www.w3.org/2000/svg"
   xmlns="http://www.w3.org/2000/svg"
   xmlns:sodipodi="http://sodipodi.sourceforge.net/DTD/sodipodi-0.dtd"
   xmlns:inkscape="http://www.inkscape.org/namespaces/inkscape"
   fill="#000000"
   viewBox="0 0 26 26"
   width="208px"
   height="208px"
   version="1.1"
   id="svg4"
   sodipodi:docname="githubOpen.svg"
   inkscape:version="0.92.4 (5da689c313, 2019-01-14)">
  <metadata
     id="metadata10">
    <rdf:RDF>
      <cc:Work
         rdf:about="">
        <dc:format>image/svg+xml</dc:format>
        <dc:type
           rdf:resource="http://purl.org/dc/dcmitype/StillImage" />
      </cc:Work>
    </rdf:RDF>
  </metadata>
  <defs
     id="defs8" />
  <sodipodi:namedview
     pagecolor="#ffffff"
     bordercolor="#666666"
     borderopacity="1"
     objecttolerance="10"
     gridtolerance="10"
     guidetolerance="10"
     inkscape:pageopacity="0"
     inkscape:pageshadow="2"
     inkscape:window-width="1920"
     inkscape:window-height="1023"
     id="namedview6"
     showgrid="false"
     inkscape:zoom="2.2692308"
     inkscape:cx="128.91469"
     inkscape:cy="116.78693"
     inkscape:window-x="0"
     inkscape:window-y="28"
     inkscape:window-maximized="1"
     inkscape:current-layer="svg4" />
  <path
     d="M 13 0.1875 C 5.925781 0.1875 0.1875 5.925781 0.1875 13 C 0.1875 20.074219 5.925781 25.8125 13 25.8125 C 20.074219 25.8125 25.8125 20.074219 25.8125 13 C 25.8125 5.925781 20.074219 0.1875 13 0.1875 Z M 13 2.1875 C 18.960938 2.1875 23.8125 7.039063 23.8125 13 C 23.8125 13.46875 23.777344 13.921875 23.71875 14.375 C 23.519531 14.324219 22.894531 14.164063 22.21875 14.15625 C 21.613281 14.148438 20.886719 14.25 20.5 14.3125 C 20.601563 13.898438 20.6875 13.457031 20.6875 13 C 20.6875 11.859375 20.257813 10.75 19.5 9.8125 C 19.78125 8.929688 20.171875 6.921875 19.40625 6.15625 C 17.53125 6.15625 16.476563 7.347656 16.28125 7.59375 C 15.421875 7.28125 14.492188 7.125 13.5 7.125 C 12.53125 7.125 11.59375 7.265625 10.75 7.5625 C 10.488281 7.246094 9.453125 6.15625 7.65625 6.15625 C 6.90625 6.90625 7.28125 8.839844 7.5625 9.75 C 6.769531 10.703125 6.3125 11.832031 6.3125 13 C 6.3125 13.429688 6.347656 13.859375 6.4375 14.25 C 6.109375 14.222656 4.777344 14.125 4.25 14.125 C 3.722656 14.125 2.855469 14.238281 2.28125 14.375 C 2.222656 13.921875 2.1875 13.46875 2.1875 13 C 2.1875 7.039063 7.039063 2.1875 13 2.1875 Z M 4.25 14.375 C 4.769531 14.375 6.371094 14.519531 6.53125 14.53125 C 6.558594 14.625 6.589844 14.71875 6.625 14.8125 C 6.097656 14.769531 4.96875 14.695313 4.25 14.78125 C 3.371094 14.886719 2.722656 15.234375 2.46875 15.375 C 2.414063 15.128906 2.351563 14.875 2.3125 14.625 C 2.863281 14.496094 3.761719 14.375 4.25 14.375 Z M 22.21875 14.40625 C 22.875 14.414063 23.519531 14.554688 23.6875 14.59375 C 23.671875 14.707031 23.644531 14.824219 23.625 14.9375 C 23.539063 14.914063 22.757813 14.675781 21.9375 14.65625 C 21.535156 14.644531 20.898438 14.710938 20.40625 14.75 C 20.429688 14.6875 20.449219 14.625 20.46875 14.5625 C 20.808594 14.515625 21.617188 14.398438 22.21875 14.40625 Z M 21.90625 14.90625 C 22.703125 14.925781 23.546875 15.175781 23.59375 15.1875 C 22.855469 18.777344 20.335938 21.699219 17 23.03125 L 17 21.3125 C 17 20.230469 16.355469 18.824219 15.4375 18.125 C 18.023438 17.753906 19.632813 16.609375 20.3125 15 C 20.777344 14.960938 21.488281 14.894531 21.90625 14.90625 Z M 5.0625 15 C 5.777344 15.003906 6.417969 15.039063 6.71875 15.0625 C 7.414063 16.636719 9.011719 17.757813 11.5625 18.125 C 11.273438 18.347656 11.003906 18.636719 10.78125 18.96875 C 10.773438 18.980469 10.757813 18.988281 10.75 19 C 10.25 19.601563 9.3125 19.5625 8.4375 19.5625 C 7.542969 19.5625 7.007813 18.847656 6.53125 18.21875 C 6.050781 17.59375 5.425781 17.539063 5.09375 17.5 C 4.761719 17.464844 4.671875 17.632813 4.84375 17.75 C 5.816406 18.433594 6.199219 19.269531 6.59375 20 C 6.949219 20.65625 7.679688 21 8.5 21 L 10.03125 21 C 10.019531 21.101563 10 21.214844 10 21.3125 L 10 23.375 C 6.316406 22.3125 3.464844 19.359375 2.53125 15.625 C 2.726563 15.515625 3.414063 15.132813 4.28125 15.03125 C 4.488281 15.007813 4.765625 15 5.0625 15 Z M 13.5 21 C 13.777344 21 14 21.222656 14 21.5 L 14 23.75 C 13.667969 23.78125 13.339844 23.8125 13 23.8125 L 13 21.5 C 13 21.222656 13.222656 21 13.5 21 Z M 11.5 21.59375 C 11.777344 21.59375 12 21.816406 12 22.09375 L 12 23.75 C 11.667969 23.71875 11.324219 23.683594 11 23.625 L 11 22.09375 C 11 21.816406 11.222656 21.59375 11.5 21.59375 Z M 15.5 21.59375 C 15.777344 21.59375 16 21.816406 16 22.09375 L 16 23.375 C 15.671875 23.46875 15.339844 23.5625 15 23.625 L 15 22.09375 C 15 21.816406 15.222656 21.59375 15.5 21.59375 Z"
     id="path2" />
  <path
     style="fill:#ffffff;stroke-width:0.88135594"
     d="m 71.125424,183.24151 c -17.267071,-7.03142 -33.129755,-21.2063 -42.192709,-37.70337 -3.502675,-6.37583 -7.603901,-16.75977 -7.603901,-19.25239 0,-3.62476 12.850273,-6.49637 25.177786,-5.62641 7.129579,0.50314 7.3531,0.58757 8.428437,3.18367 3.18168,7.68125 18.191088,17.65502 30.144351,20.03095 3.232099,0.64244 5.876544,1.40767 5.876544,1.70052 0,0.29286 -1.927119,2.4306 -4.282487,4.75055 -4.727786,4.6567 -7.912326,5.79602 -16.296179,5.83021 -6.807475,0.0278 -10.179558,-1.704 -15.679032,-8.05212 -5.013415,-5.78706 -7.627803,-7.45941 -13.005715,-8.31937 -4.93243,-0.78873 -4.718359,0.53439 1.070735,6.61792 2.578773,2.70993 6.179889,7.59977 8.002481,10.86632 5.037657,9.02877 9.332478,11.2333 21.902062,11.24235 l 6.830508,0.005 v 8.81356 c 0,4.84746 -0.297458,8.80689 -0.661017,8.79874 -0.363559,-0.008 -3.833898,-1.30688 -7.711864,-2.88604 z"
     id="path12"
     inkscape:connector-curvature="0"
     transform="scale(0.125)" />
  <path
     style="fill:#ffffff;stroke-width:0.88135594"
     d="m 70.244068,183.04886 c -20.234471,-8.81599 -37.75293,-26.80533 -46.009269,-47.24597 -1.189553,-2.94503 -2.372202,-6.64486 -2.628109,-8.22183 -0.438999,-2.70523 -0.248365,-2.95405 3.374181,-4.40402 5.882072,-2.35439 12.784129,-3.19841 21.025909,-2.57117 l 7.491525,0.57015 3.023303,4.69015 c 5.159699,8.00441 15.539889,14.60331 27.838164,17.69729 3.385515,0.85173 6.329876,1.66752 6.543024,1.81288 0.213148,0.14535 -1.562937,2.24454 -3.946855,4.66485 -4.892062,4.96674 -7.93587,6.12296 -16.137997,6.13017 -7.303582,0.006 -10.606761,-1.64693 -16.247716,-8.13247 -4.922988,-5.66008 -7.295141,-7.24387 -12.238733,-8.1713 -5.060337,-0.94932 -4.94814,0.88226 0.397339,6.48644 2.652586,2.78096 6.050687,7.23184 7.551337,9.89085 5.49976,9.74503 8.632829,11.58358 20.624914,12.10311 l 8.59322,0.37228 v 8.71105 c 0,6.38701 -0.293923,8.70818 -1.101695,8.70029 -0.605932,-0.006 -4.274576,-1.39316 -8.152542,-3.08275 z"
     id="path14"
     inkscape:connector-curvature="0"
     transform="scale(0.125)" />
  <path
     style="fill:#ffffff;stroke-width:0.88135594"
     d="M 18.327153,111.86288 C 16.70235,103.73887 18.93878,86.327 23.056116,75.04523 40.485064,27.288776 94.702256,4.6675755 140.14262,26.192879 c 10.7186,5.077451 17.55823,10.022102 25.73013,18.60138 7.63902,8.019829 12.17021,14.559206 16.33659,23.576786 5.25633,11.376621 6.72771,18.073416 7.22221,32.870785 l 0.44681,13.37066 -3.85104,-0.89254 c -2.11807,-0.4909 -7.62934,-0.72231 -12.24725,-0.51425 l -8.39619,0.3783 0.0233,-8.89031 c 0.0257,-9.831513 -1.20698,-14.302536 -6.09628,-22.110639 -2.66284,-4.25252 -2.72269,-4.561039 -1.70963,-8.813559 0.57739,-2.423729 1.08639,-7.777967 1.13112,-11.898306 0.0653,-6.015128 -0.26287,-8.05603 -1.66515,-10.355932 -1.98513,-3.255841 -2.90081,-3.392281 -10.1298,-1.509369 -5.56198,1.448712 -9.6488,3.653488 -14.23302,7.678484 l -2.85477,2.506519 -5.12484,-1.569091 C 118.03872,56.574685 98.155013,56.550091 90.997256,58.58008 L 86.191124,59.943132 82.31334,56.52977 c -4.496096,-3.957622 -11.762662,-6.935945 -17.643569,-7.23151 -3.898556,-0.195936 -4.194097,-0.04561 -5.65802,2.878011 -1.881931,3.758423 -2.012398,12.146393 -0.31499,20.251311 1.159537,5.536651 1.133444,5.790453 -0.864633,8.410068 -1.133139,1.485621 -3.166722,5.064057 -4.519072,7.952079 -2.223595,4.748617 -2.458819,6.178413 -2.458819,14.945861 v 9.69492 l -11.536375,-0.28599 c -6.345007,-0.1573 -13.545754,0.0792 -16.001661,0.52559 l -4.465284,0.81159 z"
     id="path16"
     inkscape:connector-curvature="0"
     transform="scale(0.125)" />
  <path
     style="fill:#ffffff;stroke-width:0.88135594"
     d=""
     id="path18"
     inkscape:connector-curvature="0"
     transform="scale(0.125)" />
  <path
     style="fill:#ffffff;stroke-width:0.88135594"
     d="m 136.78134,177.56184 c -0.0106,-12.42592 -2.97019,-22.09301 -8.79453,-28.72657 -1.59092,-1.81196 -2.74065,-3.39094 -2.55495,-3.50884 0.1857,-0.11791 3.1139,-0.91006 6.50712,-1.76034 3.39322,-0.85028 8.66322,-2.70968 11.71111,-4.13201 6.47194,-3.02019 15.02466,-10.79103 17.4512,-15.85584 l 1.68515,-3.51734 9.25424,-0.005 c 9.86877,-0.006 15.8644,1.11524 15.8644,2.96558 0,0.62427 -0.82482,3.67936 -1.83295,6.78908 -7.22247,22.27889 -22.73244,40.32514 -43.77721,50.93593 l -5.50848,2.77738 -0.005,-5.96184 z"
     id="path20"
     inkscape:connector-curvature="0"
     transform="scale(0.125)" />
  <path
     style="fill:#ffffff;stroke-width:0.88135594"
     d="m 120.04068,182.69078 c 0,-3.86926 0.46471,-6.51458 1.37201,-7.80993 3.0715,-4.38518 6.56019,-0.71453 6.56019,6.90236 v 4.94354 l -3.9661,0.90758 -3.9661,0.90757 z"
     id="path22"
     inkscape:connector-curvature="0"
     transform="scale(0.125)" />
  <path
     style="fill:#ffffff;stroke-width:0.88135594"
     d="m 111.55319,180.85424 c 0,-5.08983 0.14567,-7.17204 0.3237,-4.62712 0.17804,2.54491 0.17804,6.70932 0,9.25424 -0.17803,2.54491 -0.3237,0.46271 -0.3237,-4.62712 z"
     id="path24"
     inkscape:connector-curvature="0"
     transform="scale(0.125)" />
  <path
     style="fill:#ffffff;stroke-width:0.88135594"
     d="m 90.735593,189.03652 c -2.391343,-0.36226 -2.423729,-0.45386 -2.423729,-6.85584 0,-4.72365 0.376739,-6.86541 1.384988,-7.87366 1.63852,-1.63852 1.756327,-1.65257 3.96109,-0.47262 1.479337,0.79172 1.70477,1.89892 1.70477,8.37288 0,5.45127 -0.296705,7.42495 -1.101695,7.32846 -0.605932,-0.0726 -2.192373,-0.29728 -3.525424,-0.49922 z"
     id="path26"
     inkscape:connector-curvature="0"
     transform="scale(0.125)" />
  <path
     style="fill:#ff00ff;stroke-width:0.88135594"
     d="M 93.251707,205.44534 C 39.948405,199.82469 -0.53183863,152.64464 2.204253,99.328812 2.9910222,83.997727 6.0717455,71.975305 12.538938,58.998044 34.701407,14.52617 84.71198,-7.6352106 132.18646,5.9781721 185.39364,21.235418 216.77014,76.923802 202.40437,130.60403 c -10.8272,40.45771 -46.28823,70.45763 -88.53318,74.89875 -9.37167,0.98523 -10.76826,0.98134 -20.619483,-0.0575 z m 2.992362,-22.77842 c 0,-7.14615 -0.182925,-8.01034 -1.958822,-9.25424 -2.52081,-1.76564 -2.970152,-1.73116 -5.092025,0.39071 -1.466693,1.46669 -1.762712,2.93785 -1.762712,8.76035 v 6.99765 l 3.305085,0.34572 c 1.817796,0.19015 3.800847,0.4124 4.406779,0.49389 0.810275,0.10896 1.101695,-1.93685 1.101695,-7.73408 z m 15.864411,-2.51777 c 0,-11.00346 -0.49435,-12.51525 -4.0924,-12.51525 -3.65629,0 -4.72116,3.02611 -4.72116,13.41645 v 9.4988 h 4.40678 4.40678 z m 15.8644,0.58761 c 0,-6.01178 -0.22467,-6.99159 -1.796,-7.83255 -2.45667,-1.31476 -5.18677,-0.27598 -6.18668,2.35401 -0.87378,2.29818 -1.16046,12.90485 -0.37017,13.69515 0.2534,0.25339 2.23645,0.0544 4.40678,-0.44228 l 3.94607,-0.90298 z m -47.593218,-3.40795 v -9.69491 h -7.960511 c -12.248026,0 -16.077596,-2.14458 -21.662317,-12.13099 -1.726864,-3.08792 -5.105433,-7.67 -7.507933,-10.18239 -3.684392,-3.85292 -4.10047,-4.61021 -2.657995,-4.83781 3.4081,-0.53771 8.523763,2.61014 14.009169,8.62035 6.651576,7.28795 9.279129,8.37086 18.737893,7.72254 8.147915,-0.55847 10.729111,-1.81043 15.633143,-7.58256 4.161754,-4.89846 4.478029,-4.42182 -4.184669,-6.30643 C 73.407565,140.46107 60.887073,132.1825 56.057049,123.94069 l -2.24343,-3.82812 -6.767826,-0.25629 c -9.659196,-0.36577 -17.800992,0.64458 -22.911931,2.84324 l -4.426352,1.90417 1.302222,4.549 c 1.685831,5.88905 7.397927,17.96059 11.01869,23.28611 7.609812,11.19274 17.986932,20.7424 29.591807,27.23222 5.721425,3.1996 15.42169,7.21358 17.657739,7.30679 0.817369,0.0341 1.101694,-2.45615 1.101694,-9.649 z m 60.351948,5.29711 c 14.63827,-6.27469 31.17218,-21.80748 39.6707,-37.26864 3.28936,-5.98425 8.38413,-19.75906 8.38413,-22.66829 0,-2.23052 -6.47293,-3.52967 -17.58636,-3.52967 h -8.68605 l -2.65917,4.71179 c -5.07003,8.98359 -15.05173,15.61414 -28.72582,19.0817 -3.83868,0.97344 -7.11849,1.90896 -7.28845,2.07892 -0.16996,0.16996 1.03016,1.77105 2.66692,3.55798 6.348,6.93039 9.39758,16.29548 9.39758,28.8594 0,3.8118 0.16542,6.93055 0.3676,6.93055 0.20219,0 2.20871,-0.78918 4.45892,-1.75374 z M 41.81976,118.73348 c 9.715864,-0.0128 11.236787,-0.20609 11.237289,-1.42788 9.69e-4,-2.40951 -19.096961,-3.42297 -29.702058,-1.57616 -5.126853,0.8928 -5.563284,1.13937 -5.070059,2.8644 0.296824,1.03813 0.717236,2.53115 0.934248,3.31781 0.347377,1.25924 1.050532,1.1556 5.87922,-0.86652 4.928782,-2.06403 6.623495,-2.29832 16.72136,-2.31165 z m 147.84804,-0.36122 c 0,-2.14335 -1.50305,-2.6772 -9.16392,-3.25478 -7.22992,-0.54509 -16.54225,0.51085 -17.01397,1.92923 -0.22253,0.66911 2.77689,0.98176 9.62221,1.003 5.47003,0.017 11.13534,0.4378 12.58958,0.93516 3.74959,1.2824 3.9661,1.24896 3.9661,-0.61261 z m -153.45901,-4.23635 15.320654,-0.26138 -0.166532,-8.2564 c -0.192203,-9.529138 1.518147,-15.642725 6.45742,-23.081809 l 3.002766,-4.522491 -1.2249,-5.206915 c -1.596645,-6.787169 -1.584977,-16.365949 0.02463,-20.218276 1.519142,-3.635817 3.098363,-3.840244 10.902555,-1.411306 5.271325,1.64062 9.204914,3.900912 13.379706,7.688156 2.163095,1.962293 2.29204,1.973203 7.05085,0.596571 7.098528,-2.053467 26.966571,-2.03103 33.742831,0.03811 l 5.09878,1.556911 3.77636,-3.094447 c 4.70916,-3.858804 12.07016,-7.237085 17.46554,-8.01569 3.94424,-0.569193 4.17592,-0.481047 5.50847,2.095838 1.76188,3.407086 1.86627,15.544505 0.18931,22.009362 -1.10551,4.261845 -1.06858,4.802205 0.46104,6.74681 0.91454,1.16265 2.87274,4.699492 4.35156,7.859649 3.01432,6.441455 4.20841,16.012777 2.76922,22.196767 l -0.83652,3.59435 10.66891,-0.0689 c 5.86789,-0.0379 11.85873,0.12937 13.31297,0.37174 l 2.64407,0.44068 0.2479,-10.3096 C 190.75726,88.212499 186.72811,73.054521 178.0608,58.626815 167.00325,40.220261 147.09053,25.511878 125.57004,19.854879 118.35467,17.958207 114.95236,17.583568 104.61695,17.547669 91.267105,17.5013 84.324545,18.647144 73.667762,22.655716 50.126102,31.51096 31.510963,50.126099 22.655718,73.667759 c -4.253226,11.307199 -6.417473,26.040909 -5.324435,36.247551 0.538228,5.02589 0.832266,5.752 2.091562,5.165 0.805911,-0.37566 8.359586,-0.80064 16.785945,-0.9444 z"
     id="path15"
     inkscape:connector-curvature="0"
     transform="scale(0.125)" />
  <path
     style="fill:#000000;stroke-width:0.88135594"
     d="M 18.158567,110.52348 C 17.300691,104.80275 18.428142,91.359861 20.418508,83.577601 27.176107,57.155646 46.013177,35.100924 70.671574,24.740565 113.40903,6.7841909 162.63404,26.002854 182.16235,68.269331 c 5.30175,11.474936 6.77371,18.146073 7.26835,32.941199 l 0.44598,13.33934 -4.73156,-0.87836 c -2.60235,-0.48308 -8.20228,-0.66152 -12.44426,-0.39651 l -7.7127,0.48183 0.54825,-5.89911 c 0.85682,-9.21904 -2.31018,-20.481148 -7.82303,-27.819246 -1.06051,-1.411649 -1.07338,-2.411468 -0.085,-6.610169 1.701,-7.226244 1.53081,-17.483974 -0.35258,-21.252035 -1.4886,-2.978197 -1.69405,-3.075551 -5.94779,-2.818535 -5.20849,0.314703 -13.76602,4.061722 -18.23245,7.983296 l -3.16676,2.780453 -5.60505,-1.524485 C 117.0878,56.628934 98.046681,56.634692 90.9771,58.607079 L 86.150758,59.953612 83.006574,57.11303 C 76.95032,51.641616 63.456225,47.119547 60.501913,49.571408 57.449707,52.104514 56.630697,62.542936 58.719904,72.283434 l 1.193574,5.564791 -2.990041,4.443182 c -4.504025,6.692953 -6.703243,14.929316 -6.356095,23.804413 l 0.286897,7.33469 -11.457627,-0.30092 c -6.301695,-0.1655 -13.524078,0.0749 -16.04974,0.53434 l -4.592112,0.83525 z"
     id="path17"
     inkscape:connector-curvature="0"
     transform="scale(0.125)" />
  <path
     style="fill:#000000;stroke-width:0.88135594"
     d=""
     id="path19"
     inkscape:connector-curvature="0"
     transform="scale(0.125)" />
  <path
     style="fill:#000000;stroke-width:0.88135594"
     d=""
     id="path21"
     inkscape:connector-curvature="0"
     transform="scale(0.125)" />
  <path
     style="fill:#000000;stroke-width:0.22033899"
     d="m 19.733495,122.23452 c -0.217711,-0.57263 -1.146806,-5.04828 -1.064637,-5.12859 0.136356,-0.13327 3.621148,-0.77012 6.445939,-1.178 6.899656,-0.99626 8.669227,-1.00605 20.711864,-0.11464 5.970048,0.4419 6.416939,0.5391 6.614513,1.43865 0.08127,0.37001 0.08003,0.74003 -0.0028,0.82225 -0.08277,0.0822 -1.306819,0.0999 -2.720109,0.0393 -1.413287,-0.0606 -5.494615,-0.10688 -9.069615,-0.10287 -5.851372,0.007 -6.7492,0.0571 -8.997276,0.50595 -3.230449,0.64505 -6.618031,1.76241 -9.462053,3.12097 -2.249033,1.07434 -2.272222,1.07998 -2.455871,0.59695 z"
     id="path23"
     inkscape:connector-curvature="0"
     transform="scale(0.125)" />
  <path
     style="fill:#000000;stroke-width:0.22033899"
     d="m 75.572424,185.44623 c -5.420584,-1.91875 -9.738983,-3.88737 -14.432203,-6.57919 -18.140568,-10.40459 -31.997253,-27.21886 -38.718259,-46.98233 -0.927738,-2.72806 -2.091818,-6.74756 -1.984584,-6.85265 0.02767,-0.0271 0.879545,-0.4628 1.893067,-0.9682 4.239944,-2.11428 8.23925,-3.2952 12.741359,-3.76229 2.571292,-0.26677 12.103217,-0.17506 16.663437,0.16032 l 1.942475,0.14286 0.894916,1.78405 c 2.678573,5.33983 6.743181,9.80477 12.342964,13.55864 6.597139,4.42245 14.156905,7.23093 24.025472,8.92552 0.454449,0.078 0.826271,0.21424 0.826271,0.30267 0,0.0884 -0.749633,0.90195 -1.665853,1.80781 -0.91622,0.90587 -2.346286,2.5394 -3.177927,3.63008 -1.795815,2.35518 -3.170964,3.45811 -5.38207,4.31669 -2.74666,1.06653 -5.116714,1.36835 -10.926692,1.3915 -5.871986,0.0234 -6.920607,-0.17043 -9.685049,-1.7901 -1.832438,-1.07362 -5.182804,-4.3798 -7.478496,-7.37988 -2.260619,-2.95424 -3.833509,-4.36974 -6.082218,-5.47361 -2.209575,-1.08466 -3.862683,-1.51958 -6.393609,-1.68209 -1.646054,-0.10569 -2.036183,-0.0681 -2.27458,0.21915 -0.51748,0.62352 0.352472,2.10052 2.017641,3.42553 0.800781,0.63721 2.245928,2.00288 3.21144,3.03484 2.791389,2.98351 4.559596,5.66159 8.41384,12.7434 1.694775,3.11399 3.764789,5.1762 6.593065,6.5682 3.703253,1.82264 4.682117,1.9745 13.440678,2.08513 l 7.601695,0.096 -0.06135,8.9599 c -0.03374,4.92795 -0.104994,9.08385 -0.158338,9.23533 -0.154588,0.43897 -0.682,0.32343 -4.187095,-0.91729 z"
     id="path25"
     inkscape:connector-curvature="0"
     transform="scale(0.125)" />
  <path
     style="fill:#000000;stroke-width:0.22033899"
     d="m 186.40293,118.72696 c -1.33305,-0.33467 -3.81186,-0.81816 -5.50847,-1.07441 -2.79488,-0.42214 -3.5713,-0.4498 -8.26271,-0.29438 -7.28215,0.24124 -8.53979,0.23591 -8.81308,-0.0374 -0.6209,-0.62089 1.0228,-0.98428 7.37463,-1.63036 3.45424,-0.35135 9.25314,-0.30383 12.28693,0.1007 3.40443,0.45394 5.47785,0.89857 5.67457,1.21687 0.13395,0.21674 -0.10523,2.23339 -0.27331,2.30432 -0.0302,0.0127 -1.14551,-0.25068 -2.47856,-0.58535 z"
     id="path27"
     inkscape:connector-curvature="0"
     transform="scale(0.125)" />
  <path
     style="fill:#000000;stroke-width:0.22033899"
     d="m 136.2388,183.93801 c -0.0204,-0.0293 -0.10614,-3.92025 -0.19065,-8.64652 -0.12379,-6.92403 -0.22721,-8.91422 -0.5324,-10.24576 -1.12336,-4.90111 -3.46445,-10.20903 -6.17105,-13.99153 -0.78044,-1.09068 -2.32428,-2.88994 -3.43074,-3.99836 l -2.01176,-2.01531 1.61477,-0.26086 c 17.41749,-2.81377 30.17528,-10.83695 36.09572,-22.70005 0.51408,-1.03008 0.95849,-1.89995 0.98759,-1.93303 0.0291,-0.0331 1.92626,-0.21522 4.21591,-0.40475 5.91267,-0.48942 11.77445,-0.32636 15.73081,0.43761 3.78895,0.73164 5.27965,1.13624 5.68696,1.54355 0.28609,0.28609 0.24055,0.66098 -0.38261,3.15 -2.68298,10.71626 -7.74504,21.47595 -14.17878,30.13777 -6.78852,9.13947 -15.4034,16.98189 -25.08291,22.83383 -3.58252,2.16588 -12.1448,6.39017 -12.35086,6.09341 z"
     id="path29"
     inkscape:connector-curvature="0"
     transform="scale(0.125)" />
  <path
     style="fill:#000000;stroke-width:0.22033899"
     d="m 120.19107,182.36666 c 0,-4.06628 0.0879,-6.72762 0.23501,-7.11591 0.52767,-1.39265 1.91016,-2.31745 3.49511,-2.33798 1.3545,-0.0175 2.57411,0.60635 3.2853,1.68062 l 0.58627,0.88556 v 5.7441 5.74409 l -2.97457,0.79503 c -1.63602,0.43726 -3.3464,0.86367 -3.80085,0.94758 l -0.82627,0.15255 z"
     id="path31"
     inkscape:connector-curvature="0"
     transform="scale(0.125)" />
  <path
     style="fill:#000000;stroke-width:0.22033899"
     d="m 104.15481,180.52313 0.0617,-9.92845 0.67669,-0.84651 c 1.28701,-1.61001 3.06191,-2.0338 4.86408,-1.16139 0.55152,0.26699 1.14796,0.78857 1.43753,1.25711 0.46243,0.74822 0.5035,1.12695 0.6255,5.76827 0.0718,2.7321 0.0879,7.06231 0.0357,9.62268 l -0.0949,4.65523 -1.12825,0.1302 c -0.62053,0.0716 -2.34583,0.19796 -3.83399,0.28076 l -2.70576,0.15055 z"
     id="path35"
     inkscape:connector-curvature="0"
     transform="scale(0.125)" />
  <path
     style="fill:#000000;stroke-width:0.22033899"
     d="m 93.089373,189.57522 c -1.393644,-0.15007 -3.079237,-0.3529 -3.745763,-0.45074 l -1.211864,-0.17787 -0.0586,-6.12994 c -0.06273,-6.56138 0.03259,-7.39817 0.96952,-8.51166 1.892344,-2.24892 5.261693,-1.74206 6.496954,0.97736 0.364079,0.80152 0.402774,1.52878 0.387361,7.2803 -0.0094,3.51441 -0.08161,6.59134 -0.160416,6.83763 -0.139909,0.43722 -0.203098,0.44135 -2.677189,0.17492 z"
     id="path37"
     inkscape:connector-curvature="0"
     transform="scale(0.125)" />
  <path
     style="fill:#ffffff;stroke-width:0.44067797"
     d="M 94.743791,205.43991 C 70.341918,202.66792 49.62202,192.95656 32.936343,176.47094 8.6890485,152.51436 -1.8094119,120 3.8009217,86.236799 5.3412224,76.967213 7.9342997,69.086154 12.573105,59.575782 22.275504,39.684144 38.855584,22.893102 58.412166,13.153468 69.575125,7.5940548 79.809347,4.4748631 92.099723,2.8861528 98.312978,2.0829988 111.5356,2.2177072 117.87938,3.1487887 c 22.51192,3.3040908 42.28163,13.2115343 57.89897,29.0156493 8.56927,8.671747 14.02658,16.323467 19.23586,26.970666 5.03003,10.280832 8.12076,20.260707 9.75007,31.482748 1.09149,7.517688 0.98767,20.463738 -0.22838,28.476788 -5.48464,36.14065 -29.68398,66.21789 -64.14966,79.73131 -14.14056,5.54428 -32.12167,8.14989 -45.642449,6.61396 z m 1.444251,-16.96582 c 0.415873,-2.26754 0.174496,-12.61534 -0.32102,-13.76227 -0.451647,-1.04539 -2.976613,-2.54282 -4.287713,-2.54282 -1.361003,0 -3.327582,2.01773 -3.895047,3.99637 -0.237596,0.82846 -0.431997,4.21851 -0.431997,7.53344 v 6.02716 l 2.974577,0.28846 c 1.636017,0.15866 3.172881,0.36076 3.415254,0.44912 1.443308,0.52616 2.191853,-0.0588 2.545946,-1.98946 z m 16.100118,-7.82204 c -0.155,-8.32954 -0.31305,-10.26435 -0.93436,-11.43786 -1.26018,-2.38023 -5.11789,-2.40315 -6.63791,-0.0394 -1.11291,1.73064 -1.59922,5.94894 -1.59922,13.87179 v 7.63094 h 4.67903 4.67902 z m 13.59697,7.64426 2.12985,-0.54583 v -6.7275 -6.7275 l -1.23644,-1.06324 c -2.24784,-1.93296 -5.26798,-1.1802 -6.74805,1.68194 -0.7766,1.50177 -1.4105,11.17986 -0.87264,13.32288 0.28916,1.1521 0.37923,1.18522 2.44881,0.90059 1.18174,-0.16253 3.10705,-0.54114 4.27847,-0.84134 z m -45.881863,-1.91544 c 0.185252,-0.42416 0.427251,-4.88602 0.537773,-9.91526 l 0.200953,-9.14407 H 73.61802 c -13.431429,0 -16.43145,-1.53422 -22.454601,-11.48336 -2.370481,-3.91561 -5.32231,-7.86384 -9.052565,-12.10832 -1.727828,-1.96601 -2.045862,-2.55518 -1.546034,-2.86409 0.818736,-0.506 2.287982,-0.16256 5.207737,1.21733 1.637837,0.77404 4.222065,2.90775 8.382911,6.92144 7.908791,7.62911 8.595191,7.96706 16.130696,7.94208 6.384344,-0.0212 10.149064,-0.66322 12.779661,-2.17948 1.955548,-1.12717 6.174638,-5.26308 8.032285,-7.87393 1.142696,-1.60601 1.16291,-1.71978 0.404111,-2.27463 -0.439316,-0.32123 -3.012986,-1.10067 -5.719269,-1.73208 C 71.961947,139.66189 61.071975,132.18962 54.9531,121.73227 l -1.231369,-2.10445 -10.446596,0.22543 c -7.062002,0.15239 -11.396272,0.44382 -13.377778,0.89951 -2.838099,0.65268 -9.54248,3.12461 -10.14477,3.74042 -0.653799,0.66847 3.354578,11.28751 7.100762,18.81142 4.5691,9.17666 8.671167,14.97129 15.36665,21.70712 9.138552,9.19362 19.233215,15.72828 31.532714,20.41232 5.065355,1.92904 5.778266,2.03817 6.250554,0.95683 z m 62.251013,-4.32714 c 8.25285,-3.86652 17.12386,-10.52204 24.81429,-18.61706 9.7739,-10.2881 15.24299,-19.44144 19.79631,-33.13207 2.40723,-7.23792 2.52465,-8.12936 1.18631,-9.00628 -2.0575,-1.34812 -6.93853,-2.03149 -16.40909,-2.29735 l -9.25424,-0.25979 -1.1017,2.13385 c -5.8304,11.29279 -14.7573,17.63589 -31.12395,22.11545 -3.32536,0.91016 -6.11668,1.86654 -6.20293,2.12528 -0.0863,0.25875 1.23161,2.19194 2.92858,4.29597 6.33361,7.85286 8.83898,16.18407 8.83898,29.3926 0,2.81385 0.13439,5.25047 0.29864,5.41472 0.42041,0.42041 1.54164,0.0306 6.2288,-2.16532 z M 24.347063,121.53417 c 5.478329,-2.17622 6.704547,-2.3601 17.603537,-2.63965 10.807822,-0.27722 12.176105,-0.52767 10.950545,-2.00438 -0.842171,-1.01476 -3.276093,-1.56399 -8.394642,-1.89431 -4.013968,-0.25904 -4.36434,-0.34051 -2.644068,-0.6148 1.090678,-0.17391 3.695067,-0.33089 5.787529,-0.34886 l 3.804479,-0.0326 0.226213,-8.70339 c 0.300437,-11.559019 1.233096,-14.796614 6.696437,-23.245763 l 2.564538,-3.966102 -0.53742,-2.423729 c -1.375607,-6.203851 -1.871969,-10.919268 -1.646756,-15.644068 0.268642,-5.635931 0.820247,-7.840075 2.343164,-9.362992 0.977887,-0.977886 1.336391,-1.066238 3.280121,-0.808393 3.130585,0.415286 9.848637,2.696355 12.633184,4.289511 1.310946,0.750047 3.605534,2.352009 5.099076,3.559916 3.954031,3.197819 4.009054,3.212106 8.274398,2.14845 5.187895,-1.293716 13.989682,-1.965846 21.346992,-1.63012 7.07841,0.322995 10.55441,0.809133 15.01102,2.099376 l 3.13721,0.908264 3.47296,-2.763668 c 5.65789,-4.502371 14.28561,-8.232406 19.49789,-8.429561 2.28407,-0.08639 3.23697,0.782146 4.11564,3.751271 0.83951,2.836834 0.6868,15.653974 -0.23086,19.37546 -1.14451,4.64148 -1.00384,5.709468 1.22248,9.281462 6.12734,9.830909 8.01423,19.865056 5.73702,30.508386 l -0.2927,1.36804 12.05073,0.28358 c 6.62789,0.15597 12.71801,0.409 13.53358,0.56229 l 1.48285,0.27872 -0.22187,-12.28627 C 190.05107,92.115923 189.9125,90.321919 188.8905,85.545155 183.3698,59.741935 166.91616,38.589649 142.86717,26.378971 136.4555,23.123496 130.99794,21.084751 123.6082,19.184512 l -5.72882,-1.473137 -13.22033,0.0047 C 90.057842,17.721242 86.985329,18.072402 78.90872,20.6591 65.23796,25.037439 53.573923,31.929702 43.71181,41.456909 27.428382,57.187364 18.52092,77.003657 16.947294,100.99951 c -0.261689,3.99042 0.277893,11.88564 0.928099,13.58005 0.211187,0.55034 1.004102,0.63593 4.519885,0.48789 l 4.263767,-0.17955 -3.446834,0.6589 c -4.862334,0.92948 -5.30867,1.22703 -4.974575,3.31635 0.441211,2.75918 1.046902,3.94992 2.0092,3.94992 0.484435,0 2.329537,-0.5755 4.100227,-1.2789 z m 165.500667,-2.5588 c 0.4079,-2.85356 -1.59587,-3.59182 -10.73841,-3.95643 -8.5148,-0.33956 -15.61977,0.59343 -15.61977,2.05113 0,0.73533 1.66251,0.93006 11.3099,1.32474 6.31433,0.25831 10.30404,0.61763 11.60536,1.04519 2.53284,0.83219 3.2718,0.73247 3.44292,-0.46463 z"
     id="path39"
     inkscape:connector-curvature="0"
     transform="scale(0.125)" />
  <path
     style="fill:#ffffff;stroke-width:0.62321275"
     d="m 90.130206,188.98246 -2.079425,-0.25538 0.209787,-6.86319 c 0.181293,-5.93099 0.374102,-6.98318 1.419524,-7.74664 1.677086,-1.22476 3.243773,-1.10405 4.710785,0.36296 1.095344,1.09535 1.246425,2.07738 1.246425,8.10177 v 6.85534 l -1.713835,-0.0997 c -0.942609,-0.0549 -2.649577,-0.21466 -3.793261,-0.35512 z"
     id="path41"
     inkscape:connector-curvature="0"
     transform="scale(0.125)" />
  <path
     style="fill:#ffffff;stroke-width:0.62321275"
     d="m 104.36228,180.45758 c 0,-9.1432 0.074,-9.73708 1.36394,-10.93879 1.66876,-1.55469 2.47258,-1.58925 4.18848,-0.18008 1.18731,0.97507 1.3639,1.91596 1.66677,8.88078 0.18631,4.28459 0.0917,8.6315 -0.21035,9.6598 -0.50779,1.72892 -0.7922,1.88381 -3.77898,2.05801 l -3.22986,0.18837 z"
     id="path43"
     inkscape:connector-curvature="0"
     transform="scale(0.125)" />
  <path
     style="fill:#ffffff;stroke-width:0.62321275"
     d="m 120.56581,181.74375 c 0,-5.45441 0.17549,-6.60596 1.1397,-7.47855 1.49517,-1.35312 3.40157,-1.30905 4.68423,0.10828 0.79985,0.88383 1.03141,2.4063 1.03141,6.78136 v 5.64166 l -2.76882,0.6972 c -1.52285,0.38346 -3.0653,0.69719 -3.42767,0.69719 -0.42053,0 -0.65885,-2.33205 -0.65885,-6.44714 z"
     id="path45"
     inkscape:connector-curvature="0"
     transform="scale(0.125)" />
  <path
     style="fill:#ffffff;stroke-width:0.15580319"
     d="m 112.095,184.721 c 0,-3.21344 0.0207,-4.52803 0.046,-2.92131 0.0253,1.60672 0.0253,4.2359 0,5.84262 -0.0253,1.60672 -0.046,0.29213 -0.046,-2.92131 z"
     id="path47"
     inkscape:connector-curvature="0"
     transform="scale(0.125)" />
  <path
     style="fill:#ffffff;stroke-width:0.15580319"
     d="m 111.7251,186.96716 c 0.007,-0.1815 0.0444,-0.21842 0.0941,-0.0941 0.045,0.11247 0.0395,0.24685 -0.0123,0.29862 -0.0518,0.0518 -0.0886,-0.0402 -0.0818,-0.20449 z"
     id="path49"
     inkscape:connector-curvature="0"
     transform="scale(0.125)" />
  <path
     style="fill:#ffffff;stroke-width:0.15580319"
     d="m 112.24856,186.43483 c 0,-2.35652 0.0217,-3.32055 0.0481,-2.14229 0.0265,1.17826 0.0265,3.10632 0,4.28459 -0.0265,1.17826 -0.0481,0.21423 -0.0481,-2.1423 z"
     id="path51"
     inkscape:connector-curvature="0"
     transform="scale(0.125)" />
  <path
     style="fill:#ffffff;stroke-width:0.15580319"
     d="m 112.29401,188.92768 c -0.0611,-0.4713 -0.10128,-1.73331 -0.0893,-2.80445 l 0.0218,-1.94754 0.1338,2.49285 c 0.14326,2.66923 0.11439,3.653 -0.0663,2.25914 z"
     id="path53"
     inkscape:connector-curvature="0"
     transform="scale(0.125)" />
  <path
     style="fill:#ffffff;stroke-width:0.15580319"
     d="m 112.2269,189.8625 c 0,-0.4713 0.0292,-0.66411 0.0649,-0.42846 0.0357,0.23566 0.0357,0.62127 0,0.85692 -0.0357,0.23565 -0.0649,0.0428 -0.0649,-0.42846 z"
     id="path55"
     inkscape:connector-curvature="0"
     transform="scale(0.125)" />
  <path
     style="fill:#ffffff;stroke-width:0.02754237"
     d="m 100.66493,205.83625 c -2.847102,-0.10068 -4.476702,-0.22681 -7.092163,-0.54892 -1.788964,-0.22033 -3.527476,-0.47391 -5.284855,-0.77087 -0.490515,-0.0829 -0.902618,-0.15071 -0.915783,-0.15071 -0.0135,0 -0.02394,-3.19073 -0.02394,-7.31418 v -7.31419 l 0.117055,0.016 c 0.06438,0.009 0.693379,0.0714 1.397775,0.13907 1.829339,0.17575 2.283643,0.22339 3.167373,0.33214 1.010721,0.12437 1.408198,0.19092 1.727822,0.28931 0.366887,0.11293 0.583647,0.14479 0.879813,0.1293 0.228963,-0.012 0.282555,-0.0254 0.471019,-0.11832 0.142414,-0.0702 0.262698,-0.15631 0.364143,-0.26075 0.137359,-0.14141 0.294641,-0.36275 0.22889,-0.32211 -0.02672,0.0165 -1.87737,-0.16282 -3.065754,-0.29708 -1.379602,-0.15586 -2.847393,-0.35688 -3.93856,-0.53938 -0.355985,-0.0595 -0.656541,-0.1083 -0.667902,-0.10836 -0.01136,-6e-5 -0.02066,-1.42543 -0.02066,-3.16748 0,-1.74206 0.01037,-3.16738 0.02303,-3.16738 0.02124,0 0.05433,1.97173 0.06332,3.77331 0.0021,0.41658 0.0078,0.73263 0.01273,0.70233 0.0049,-0.0303 0.03447,-0.95985 0.06566,-2.06568 0.03119,-1.10583 0.06372,-2.10045 0.07227,-2.21027 l 0.01556,-0.19969 h 3.674557 3.674557 v 3.37394 3.37394 h -0.1236 c -0.450261,0 -2.406109,-0.13963 -3.691019,-0.2635 -0.911187,-0.0879 -3.153027,-0.34732 -3.573623,-0.41362 l -0.103284,-0.0163 v 0.12253 0.12252 l 0.130827,0.0164 c 0.07195,0.009 0.434481,0.0607 0.805614,0.115 0.846443,0.12374 2.112476,0.28038 3.552966,0.43959 1.788436,0.19766 2.001161,0.21669 2.451271,0.21925 0.747586,0.004 0.737574,0.025 0.797561,-1.65011 0.03044,-0.8499 0.08294,-3.92872 0.08349,-4.89565 1.94e-4,-0.34408 0.01043,-0.54397 0.02785,-0.54397 0.01819,0 0.02754,1.02764 0.02754,3.02783 v 3.02783 l -0.06876,0.37232 c -0.03782,0.20477 -0.09929,0.46844 -0.136598,0.58593 -0.03731,0.11748 -0.06413,0.21731 -0.0596,0.22184 0.01854,0.0185 0.211276,-0.43685 0.288069,-0.68066 0.100212,-0.31816 0.210001,-0.87623 0.249247,-1.26695 0.08738,-0.86989 0.140303,-2.41745 0.140585,-4.1107 l 1.96e-4,-1.17744 h 3.346398 3.346403 v 4.00742 4.00741 h 4.69996 4.69995 l -0.0176,-0.18591 c -0.01,-0.10225 -0.0202,-0.47097 -0.0234,-0.81938 -0.003,-0.34841 -0.01,-0.53123 -0.0151,-0.40625 -0.005,0.12497 -0.0197,0.22722 -0.0324,0.22722 -0.0241,0 -0.0991,-0.44396 -0.14382,-0.85156 -0.0143,-0.13 -0.0301,-1.10395 -0.0352,-2.16433 -0.005,-1.06038 -0.002,-1.8598 0.007,-1.77648 l 0.0163,0.15148 0.0166,-0.22034 c 0.0104,-0.13835 0.0186,0.0308 0.0221,0.45445 0.003,0.37114 0.03,1.15196 0.0599,1.73517 0.0299,0.58321 0.0546,1.1585 0.0547,1.27843 1.4e-4,0.11992 0.007,0.21114 0.0156,0.20271 0.0148,-0.0148 -0.0525,-4.14962 -0.0838,-5.15116 l -0.0153,-0.48888 h 3.35068 3.35069 l -0.0159,0.11706 c -0.009,0.0644 -0.0307,0.68744 -0.0488,1.38457 -0.0476,1.83634 0.0124,3.27565 0.16593,3.97921 0.21829,1.00016 0.41281,1.18836 1.1858,1.14727 0.96963,-0.0515 3.17232,-0.42398 4.98517,-0.84291 0.32138,-0.0743 2.54408,-0.63754 2.6785,-0.67878 0.0455,-0.0139 0.0482,-0.16001 0.0482,-2.5606 v -2.54582 h 3.89251 3.89251 l 0.0338,0.45557 c 0.0394,0.53068 0.0983,0.9514 0.14751,1.05404 0.11439,0.2384 0.57069,0.26197 1.20528,0.0623 0.0985,-0.031 0.18212,-0.0565 0.18591,-0.0567 0.004,-2e-4 0.007,3.54318 0.007,7.87417 v 7.87453 l -0.13082,0.0456 c -9.13182,3.1822 -19.65109,5.23727 -29.46346,5.75605 -1.74972,0.0925 -2.15328,0.10239 -4.47563,0.10963 -1.32548,0.004 -2.52151,0.004 -2.65784,-0.001 z"
     id="path57"
     inkscape:connector-curvature="0"
     transform="scale(0.125)" />
  <path
     style="fill:#ffffff;stroke-width:0.02754237"
     d="m 112.30376,189.58697 c 0.001,-0.0321 0.008,-0.0386 0.0166,-0.0166 0.008,0.0199 0.007,0.0436 -0.002,0.0528 -0.009,0.009 -0.0157,-0.007 -0.0145,-0.0361 z"
     id="path59"
     inkscape:connector-curvature="0"
     transform="scale(0.125)" />
  <path
     style="fill:#ffffff;stroke-width:0.02754237"
     d="m 112.2525,189.85092 c 2.9e-4,-0.28928 0.01,-0.47382 0.0215,-0.4269 0.028,0.10991 0.028,0.78025 0,0.86758 -0.0127,0.0396 -0.0218,-0.14739 -0.0215,-0.44068 z"
     id="path61"
     inkscape:connector-curvature="0"
     transform="scale(0.125)" />
  <path
     style="fill:#ffffff;stroke-width:0.02754237"
     d="m 112.25199,189.85092 c 0,-0.29408 0.009,-0.48042 0.022,-0.44068 0.0287,0.0895 0.0287,0.79188 0,0.88136 -0.0127,0.0397 -0.022,-0.1466 -0.022,-0.44068 z"
     id="path63"
     inkscape:connector-curvature="0"
     transform="scale(0.125)" />
  <path
     style="fill:#ffffff;stroke-width:0.02754237"
     d="m 103.29522,186.60092 v -3.93856 h 0.34428 0.34428 v 3.92479 3.92479 l 0.4338,-2.8e-4 c 0.97188,-6.1e-4 2.63996,-0.0817 4.27595,-0.20779 1.12906,-0.087 3.27723,-0.28425 3.3088,-0.30376 0.0132,-0.008 0.0238,-1.64566 0.0238,-3.67624 0,-2.42264 0.009,-3.66151 0.0275,-3.66151 0.0181,0 0.0275,0.66869 0.0275,1.95096 0,1.07303 0.008,2.84538 0.0183,3.93856 l 0.0183,1.9876 h -4.41131 -4.41131 z"
     id="path65"
     inkscape:connector-curvature="0"
     transform="scale(0.125)" />
  <path
     style="fill:#ffffff;stroke-width:0.02754237"
     d="m 104.11259,189.6237 c 0.005,-0.44309 0.0167,-2.19065 0.0261,-3.88348 l 0.0171,-3.07786 h 0.093 0.093 v 3.73199 3.732 h 0.12319 c 0.24465,0 3.86726,-0.22087 4.29736,-0.26201 1.70635,-0.16321 2.11404,-0.42734 2.50771,-1.62465 0.14118,-0.42939 0.18853,-0.65117 0.24405,-1.143 0.0876,-0.77583 0.13934,-1.826 0.17003,-3.44969 l 0.0186,-0.98464 h 0.0791 0.079 l -0.001,0.97087 c -5.8e-4,0.53398 -0.012,1.4594 -0.0254,2.05649 -0.0212,0.94366 -0.03,1.08881 -0.0678,1.10995 -0.0606,0.034 -0.0623,0.36636 -0.002,0.40011 0.0367,0.0205 0.038,0.17548 0.0113,1.34406 -0.0166,0.72647 -0.0337,1.32447 -0.038,1.32889 -0.0157,0.0159 -1.17127,0.14422 -1.7775,0.19734 -1.06067,0.0929 -5.32663,0.35924 -5.7546,0.35924 h -0.10228 z"
     id="path67"
     inkscape:connector-curvature="0"
     transform="scale(0.125)" />
  <path
     style="fill:#ffffff;stroke-width:0.05508475"
     d="m 104.17486,181.68094 c 0.012,-0.53777 0.0325,-3.25115 0.0455,-6.02975 l 0.0237,-5.05198 0.4368,-0.53912 c 1.04025,-1.28392 1.89117,-1.80334 3.06942,-1.87363 1.43373,-0.0855 3.01753,0.78121 3.56639,1.95174 0.3041,0.64853 0.38252,1.59048 0.48288,5.80015 0.0827,3.46823 0.0735,6.72034 -0.0189,6.72034 -0.0597,0 -0.0805,-0.38178 -0.10889,-1.99682 -0.0193,-1.09825 -0.0727,-2.75286 -0.1188,-3.67691 -0.22902,-4.59446 -0.41254,-5.9672 -0.91795,-6.86637 -0.28554,-0.50799 -1.21215,-1.28007 -1.95377,-1.62793 -0.32033,-0.15026 -0.44435,-0.17839 -0.79286,-0.17983 -0.36256,-0.002 -0.46371,0.0225 -0.82627,0.19594 -0.48814,0.23354 -1.1183,0.72708 -1.61938,1.26829 -0.96588,1.04324 -1.07842,1.96879 -1.07928,8.87621 -4.8e-4,3.9046 -0.003,4.00742 -0.10548,4.00742 -0.10014,0 -0.10398,-0.0452 -0.0831,-0.97775 z"
     id="path69"
     inkscape:connector-curvature="0"
     transform="scale(0.125)" />
  <path
     style="fill:#ffffff;stroke-width:0.05508475"
     d="m 103.31686,180.99238 c 10e-4,-3.85182 0.20203,-7.07271 0.54697,-8.77225 0.10024,-0.49391 0.10064,-0.47536 0.10707,4.9714 l 0.006,5.46716 h -0.33051 -0.33051 l 5.3e-4,-1.66631 z"
     id="path71"
     inkscape:connector-curvature="0"
     transform="scale(0.125)" />
  <path
     style="fill:#ffffff;stroke-width:0.05508475"
     d="m 103.66073,172.82606 c 6.2e-4,-0.12118 0.0119,-0.16427 0.0251,-0.0958 0.0132,0.0685 0.0127,0.16767 -10e-4,0.22034 -0.0138,0.0527 -0.0246,-0.003 -0.024,-0.12459 z"
     id="path73"
     inkscape:connector-curvature="0"
     transform="scale(0.125)" />
  <path
     style="fill:#ffffff;stroke-width:0.05508475"
     d="m 111.52396,170.52909 c 0,-0.0464 -0.088,-0.2604 -0.19565,-0.4755 -0.33516,-0.66994 -1.06158,-1.30457 -1.85835,-1.62354 -1.69259,-0.67759 -3.33869,-0.21764 -4.57802,1.2792 -0.17866,0.21577 -0.33657,0.38056 -0.35093,0.36621 -0.0535,-0.0535 0.49215,-0.74637 0.82578,-1.04855 0.39232,-0.35535 1.14206,-0.75005 1.69531,-0.89249 0.47529,-0.12238 1.39759,-0.12238 1.87288,0 0.89112,0.22943 1.76787,0.82282 2.28361,1.54556 0.22739,0.31866 0.41752,0.82136 0.33999,0.8989 -0.019,0.019 -0.0346,-0.003 -0.0346,-0.0498 z"
     id="path75"
     inkscape:connector-curvature="0"
     transform="scale(0.125)" />
  <path
     style="fill:#ffffff;stroke-width:0.05508475"
     d="m 104.66299,169.63602 c 0.0748,-0.23281 0.55101,-0.87201 0.84616,-1.1358 0.65478,-0.58523 1.40898,-0.82458 2.59831,-0.82458 1.66876,0 2.48945,0.40933 3.03726,1.51486 0.12766,0.25763 0.22145,0.47909 0.20841,0.49213 -0.013,0.013 -0.12247,-0.0973 -0.24317,-0.24511 -0.25284,-0.30969 -0.76888,-0.74472 -1.12837,-0.95125 -0.64523,-0.37069 -1.64369,-0.56909 -2.41899,-0.48066 -1.1035,0.12585 -1.98122,0.62403 -2.81549,1.598 -0.0922,0.10767 -0.11058,0.11474 -0.0841,0.0324 z"
     id="path77"
     inkscape:connector-curvature="0"
     transform="scale(0.125)" />
  <path
     style="fill:#ffffff;stroke-width:0.05508475"
     d="m 120.2277,183.85678 c 3.2e-4,-4.76882 0.0537,-7.46415 0.16323,-8.23732 0.0804,-0.56741 0.32973,-1.01057 0.878,-1.56025 0.76607,-0.76806 1.57037,-1.09303 2.70914,-1.09462 0.92856,-10e-4 1.58019,0.20653 2.34296,0.74723 0.38685,0.27422 0.63505,0.5582 1.11371,1.27421 l 0.33922,0.50742 v 5.73092 c 0,3.15201 -0.009,5.73093 -0.0209,5.73093 -0.0115,0 -0.84811,0.22136 -1.85911,0.49191 -2.78456,0.74516 -5.38353,1.38097 -5.64498,1.38097 -0.0119,0 -0.0214,-2.23713 -0.0212,-4.9714 z m 2.20304,4.1661 c 0.37871,-0.0735 1.66396,-0.37449 2.85612,-0.66894 l 2.16757,-0.53538 -0.0277,-4.48989 c -0.0216,-3.49886 -0.0459,-4.64188 -0.10999,-5.17845 -0.20036,-1.67604 -0.43021,-2.31723 -1.05443,-2.94145 -0.61775,-0.61775 -1.34403,-0.92881 -2.17905,-0.93328 -0.82123,-0.004 -1.51911,0.25982 -2.25142,0.85236 -1.08507,0.87797 -1.27328,1.95129 -1.27371,7.26389 -3.5e-4,4.21519 0.16493,6.32466 0.52689,6.72462 0.11897,0.13147 0.22345,0.12421 1.3457,-0.0935 z"
     id="path79"
     inkscape:connector-curvature="0"
     transform="scale(0.125)" />
  <path
     style="fill:#ffffff;stroke-width:0.05508475"
     d="m 119.78667,189.00041 c -0.0818,-0.0221 -0.17591,-0.11484 -0.23184,-0.22862 -0.57551,-1.1708 -0.44245,-9.20361 0.20756,-12.53047 0.11777,-0.60275 0.27834,-1.08951 0.49971,-1.51483 1.01803,-1.95596 3.10271,-2.81479 5.14576,-2.1199 0.55835,0.18991 1.12834,0.50688 1.46537,0.81491 0.32027,0.29271 0.64228,0.87341 0.70838,1.27744 l 0.0361,0.22034 -0.23198,-0.35782 c -0.4866,-0.75058 -1.24377,-1.33365 -2.11807,-1.63105 -0.62454,-0.21245 -1.57565,-0.24909 -2.22212,-0.0856 -1.19155,0.30132 -2.12929,1.05382 -2.65379,2.12957 -0.43308,0.88824 -0.40503,0.38749 -0.42545,7.59528 l -0.0182,6.4385 0.29115,-0.037 c 0.84954,-0.10789 4.32464,-0.9615 6.76223,-1.66107 0.46885,-0.13455 0.87166,-0.24464 0.89513,-0.24464 0.0235,0 0.0427,0.1187 0.0427,0.26377 v 0.26377 l -2.24471,0.51075 c -2.58656,0.58853 -3.43987,0.75327 -4.47563,0.86405 -0.78618,0.0841 -1.20583,0.0936 -1.43221,0.0326 z"
     id="path81"
     inkscape:connector-curvature="0"
     transform="scale(0.125)" />
  <path
     style="fill:#ffffff;stroke-width:0.05508475"
     d="m 127.93899,177.4945 c -3.2e-4,-0.77958 -0.14212,-2.17552 -0.27277,-2.68539 -0.0621,-0.24237 -0.18576,-0.58879 -0.27478,-0.76983 -0.089,-0.18103 -0.15406,-0.33695 -0.14453,-0.34648 0.01,-0.01 0.18159,0.12291 0.38236,0.29429 l 0.36503,0.31162 v 1.86643 c 0,1.02654 -0.0124,1.86643 -0.0275,1.86643 -0.0151,0 -0.0276,-0.24168 -0.0278,-0.53707 z"
     id="path83"
     inkscape:connector-curvature="0"
     transform="scale(0.125)" />
  <path
     style="fill:#ffffff;stroke-width:0.05508475"
     d="m 119.71637,188.92458 c -0.15306,-0.11536 -0.25328,-0.44075 -0.3549,-1.15222 -0.13909,-0.97392 -0.13769,-6.04544 0.002,-7.86791 0.16367,-2.13248 0.36131,-3.57421 0.59373,-4.33098 0.38294,-1.24685 1.16404,-2.19456 2.26336,-2.74614 0.66225,-0.33227 1.15728,-0.43389 1.96382,-0.40314 0.55403,0.0211 0.71967,0.0512 1.2045,0.21872 1.03139,0.35637 1.59084,0.78481 1.94265,1.48771 0.28844,0.57629 0.2821,0.68967 -0.0159,0.28519 -0.5558,-0.75428 -1.41281,-1.34336 -2.27529,-1.56394 -0.59508,-0.1522 -1.55386,-0.14978 -2.11358,0.005 -1.51001,0.41844 -2.80331,1.85046 -2.88217,3.19132 -0.0134,0.22723 -0.0135,0.33877 -1.8e-4,0.24788 0.0598,-0.41014 0.19402,-0.88098 0.34749,-1.21945 0.20409,-0.4501 0.26737,-0.44246 0.085,0.0103 -0.22736,0.56446 -0.2588,1.4203 -0.28858,7.85555 -0.0266,5.73961 -0.0241,5.93097 0.0746,5.9523 0.0663,0.0143 0.0394,0.032 -0.077,0.0507 l -0.17903,0.0286 -0.0123,-6.03602 -0.0123,-6.03601 -0.0318,6.03178 c -0.0175,3.31748 -0.0367,6.03798 -0.0428,6.04555 -0.0258,0.0322 -0.1064,0.009 -0.19151,-0.0551 z"
     id="path85"
     inkscape:connector-curvature="0"
     transform="scale(0.125)" />
  <path
     style="fill:#ffffff;stroke-width:0.05508475"
     d="m 119.71637,188.92458 c -0.31839,-0.23996 -0.42737,-1.1742 -0.46425,-3.97987 -0.0584,-4.44038 0.26664,-8.23862 0.83392,-9.74574 0.50852,-1.35102 1.69657,-2.4078 3.04386,-2.70755 0.65508,-0.14574 1.55154,-0.0908 2.22033,0.13613 1.05474,0.35785 1.62466,0.79017 1.98148,1.50307 0.2761,0.55163 0.28497,0.69631 0.021,0.34214 -0.64336,-0.86318 -1.51861,-1.45553 -2.4389,-1.65061 -0.47354,-0.10039 -1.42893,-0.0983 -1.86293,0.004 -1.43618,0.33862 -2.73733,1.63961 -2.98619,2.9858 -0.0907,0.4907 -0.0567,0.52731 0.0563,0.0606 0.10375,-0.42866 0.41456,-1.18674 0.46563,-1.13568 0.0152,0.0153 -0.0217,0.13954 -0.0822,0.2762 -0.0605,0.13667 -0.13535,0.42784 -0.16644,0.64704 -0.10244,0.72228 -0.16402,3.9273 -0.16485,8.57958 -7.4e-4,4.18751 0.007,4.58742 0.0894,4.63353 0.0726,0.0406 0.0564,0.0554 -0.0826,0.0758 l -0.1728,0.0254 -0.0126,-5.56779 -0.0126,-5.5678 -0.0306,5.56356 c -0.0169,3.05996 -0.0359,5.56976 -0.0425,5.57733 -0.0275,0.032 -0.10698,0.009 -0.1923,-0.0551 z"
     id="path87"
     inkscape:connector-curvature="0"
     transform="scale(0.125)" />
  <path
     style="fill:#ffffff;stroke-width:0.01377119"
     d="m 127.45285,174.26973 c -0.0464,-0.11495 -0.15494,-0.31469 -0.24735,-0.45523 -0.18271,-0.27787 -0.36117,-0.45399 -0.6696,-0.66085 -0.54913,-0.36829 -1.23624,-0.63869 -1.87976,-0.73973 -0.38399,-0.0603 -0.89445,-0.0637 -1.25716,-0.009 -0.52364,0.0798 -1.06045,0.27315 -1.51002,0.54402 -0.46628,0.28094 -0.94522,0.72905 -1.27727,1.19507 -0.058,0.0814 -0.10841,0.14498 -0.11206,0.14133 -0.009,-0.009 0.0853,-0.14399 0.21984,-0.31683 0.69985,-0.89902 1.66892,-1.45505 2.78677,-1.599 0.26542,-0.0342 0.74593,-0.0308 1.03284,0.007 0.54735,0.0727 1.05068,0.23361 1.57043,0.50218 0.70839,0.36605 1.06898,0.72244 1.32921,1.31375 0.0309,0.0703 0.0541,0.13438 0.0514,0.14237 -0.003,0.008 -0.0195,-0.0217 -0.0373,-0.0659 z"
     id="path89"
     inkscape:connector-curvature="0"
     transform="scale(0.125)" />
  <path
     style="fill:#ffffff;stroke-width:0.01377119"
     d="m 123.84638,172.35441 c 0.0659,-0.003 0.17744,-0.003 0.24788,-3e-5 0.0704,0.003 0.0165,0.005 -0.1198,0.005 -0.13633,2e-5 -0.19397,-0.002 -0.12808,-0.005 z"
     id="path91"
     inkscape:connector-curvature="0"
     transform="scale(0.125)" />
  <path
     style="fill:#ffffff;stroke-width:0.05508475"
     d="m 103.16124,184.42933 c 0.0249,-5.82594 0.0605,-7.36069 0.20536,-8.85487 0.0439,-0.45232 0.0457,-0.4335 0.0206,0.21473 -0.10054,2.59882 -0.12824,4.60218 -0.12973,9.38378 l -0.002,5.41208 h 4.43432 4.43432 l 8.5e-4,-1.28072 c 9.1e-4,-1.37708 0.0799,-1.87964 0.12701,-0.80772 0.0152,0.34578 0.0424,0.71545 0.0605,0.82149 0.0224,0.13164 0.0179,0.15793 -0.0144,0.0829 -0.0634,-0.14764 -0.11337,0.35709 -0.075,0.75691 0.0366,0.38039 0.11207,0.20347 0.11745,-0.27517 0.002,-0.19022 0.0285,-0.34428 0.059,-0.34428 0.0331,0 0.0551,0.22034 0.0551,0.55085 v 0.55084 h -4.6601 -4.6601 l 0.0265,-6.2108 z"
     id="path93"
     inkscape:connector-curvature="0"
     transform="scale(0.125)" />
  <path
     style="fill:#ffffff;stroke-width:0.05508475"
     d="m 99.812974,205.80868 c -2.160644,-0.0964 -4.373771,-0.28863 -6.637712,-0.57652 -10.807656,-1.37435 -20.998876,-4.15657 -30.241526,-8.25599 l -1.074152,-0.47642 -0.01395,-8.27811 -0.01395,-8.2781 0.399544,0.219 c 3.373081,1.84883 7.295186,3.65375 11.196457,5.15252 5.139121,1.97431 6.040468,2.13814 6.529875,1.18686 0.329373,-0.64021 0.534363,-5.4643 0.780337,-18.3639 l 0.01576,-0.82628 -5.811441,-0.0327 c -3.505258,-0.0198 -6.161194,-0.058 -6.692797,-0.0965 -1.973524,-0.14269 -3.484777,-0.32575 -4.682203,-0.56714 -0.521932,-0.10522 -0.718807,-0.15358 -1.432203,-0.35176 l -0.302967,-0.0842 v -5.29119 c 0,-2.91015 0.01859,-5.28162 0.04131,-5.26993 1.743259,0.8968 2.960637,1.18652 5.504741,1.31006 2.718357,0.132 7.087988,-0.0102 9.409454,-0.3061 2.46842,-0.31468 4.21965,-0.79195 5.776238,-1.57422 1.266446,-0.63645 2.494205,-1.63328 4.721525,-3.83344 l 1.353695,-1.33719 19.303081,3.1e-4 19.30309,3.1e-4 0.58595,0.78465 c 4.65564,6.23436 6.95039,12.77546 7.64771,21.79948 0.12919,1.67181 0.17329,2.8857 0.22114,6.08686 0.0638,4.27117 0.14906,5.51685 0.391,5.71505 0.42762,0.3503 1.8487,-0.15926 6.33004,-2.2698 5.96337,-2.80851 12.73473,-7.41949 18.51782,-12.60975 0.42632,-0.38262 0.82179,-0.72972 0.87881,-0.77135 0.10144,-0.074 0.10339,0.12911 0.0898,9.33687 l -0.0139,9.41254 -1.44148,0.96399 c -6.09813,4.07808 -12.56093,7.47509 -19.49072,10.2448 -9.85391,3.93841 -21.21949,6.41385 -32.77542,7.13851 -1.2904,0.0809 -7.20845,0.15074 -8.372885,0.0988 z m 12.688776,-15.29249 c -0.008,-0.16662 -0.01,-0.16853 -0.0312,-0.0275 l -0.0229,0.15148 h -4.65236 -4.65235 l 0.0365,-5.82521 c 0.0201,-3.20386 0.0455,-5.83554 0.0564,-5.84816 0.011,-0.0126 0.0199,2.59633 0.0199,5.79767 v 5.82062 h 4.42602 4.42602 l 0.0427,-1.11547 c 0.0235,-0.6135 0.0582,-1.94586 0.0772,-2.9608 l 0.0345,-1.84534 0.0637,1.29449 c 0.0621,1.26184 0.0631,1.23126 0.0394,-1.21186 -0.0456,-4.70587 -0.17592,-9.83036 -0.29899,-11.7606 -0.11831,-1.85562 -0.32553,-3.02247 -0.65543,-3.69067 -0.31329,-0.63458 -0.85887,-1.16899 -1.51729,-1.48626 -0.62097,-0.29923 -1.00988,-0.38252 -1.79025,-0.38341 -0.8263,-9.5e-4 -1.18416,0.0818 -1.92797,0.44578 -0.42759,0.20924 -0.60508,0.33768 -0.97044,0.70227 -0.37997,0.37917 -0.48937,0.53307 -0.72837,1.02458 -0.69065,1.42039 -1.04643,3.6158 -1.28099,7.90466 -0.0331,0.60594 -0.0731,3.8222 -0.0887,7.14725 l -0.0285,6.04555 h 4.71588 4.71589 z m -17.358737,-0.0165 c 0.237468,-0.11833 0.621191,-0.49217 0.557939,-0.54356 -0.01063,-0.009 -0.353974,-0.0462 -0.762978,-0.0835 -1.908596,-0.17401 -5.470493,-0.61349 -5.282334,-0.65176 0.04864,-0.01 0.829463,0.0693 1.73517,0.17601 3.1442,0.37041 3.975555,0.43127 4.206008,0.30794 0.190056,-0.10172 0.225737,-0.38599 0.283631,-2.25964 0.0743,-2.40475 0.03244,-10.86446 -0.05598,-11.31255 -0.27761,-1.40688 -1.368785,-2.67092 -2.648719,-3.06834 -0.609725,-0.18931 -1.108924,-0.24003 -1.636407,-0.16624 -0.866268,0.12119 -1.525553,0.43771 -2.17457,1.04401 -0.826981,0.77254 -1.125033,1.49664 -1.250103,3.03702 l -0.04696,0.57839 -0.0077,-0.69352 c -0.0094,-0.84615 0.102446,-1.34501 0.445874,-1.98955 1.019838,-1.91403 3.38759,-2.63722 5.346153,-1.6329 0.653336,0.33503 1.360306,1.05154 1.676793,1.69944 0.456679,0.9349 0.422096,0.34828 0.441531,7.48969 0.01791,6.58189 0.02369,6.34663 -0.178552,7.27302 -0.0676,0.30967 0.201688,-0.37491 0.300466,-0.76382 0.162417,-0.63948 0.217202,-1.20801 0.284591,-2.95329 0.124507,-3.2246 -0.07291,-9.0539 -0.363126,-10.72259 -0.102446,-0.58904 -0.210328,-0.78718 -0.686554,-1.26097 -0.681072,-0.6776 -1.73779,-1.31035 -2.774258,-1.66121 -1.184941,-0.40112 -2.008244,-0.1296 -3.183566,1.0499 -0.607535,0.6097 -1.000026,1.16749 -1.377244,1.95728 -0.322803,0.67585 -0.403769,1.01428 -0.515193,2.15343 -0.16931,1.73095 -0.204844,2.87189 -0.234206,7.52 l -0.02976,4.71068 2.113548,0.20762 c 2.490838,0.24468 3.959328,0.43739 4.454649,0.58459 0.529161,0.15725 1.013163,0.14816 1.361819,-0.0256 z M 112.3456,189.9896 c 6e-4,-0.22273 0.0163,-0.28957 0.0542,-0.23086 0.04,0.0618 0.0536,0.033 0.0542,-0.11476 4.4e-4,-0.10856 -0.0178,-0.21574 -0.0405,-0.23817 -0.0227,-0.0224 -0.0667,-0.20627 -0.0976,-0.40854 -0.0515,-0.33607 -0.0562,-0.29349 -0.0551,0.49416 6.7e-4,0.47407 0.0198,0.85062 0.0425,0.8368 0.0227,-0.0138 0.0417,-0.16621 0.0422,-0.33863 z m -0.12625,-0.29972 c -0.0122,-0.0985 -0.0222,-0.0179 -0.0222,0.17903 0,0.19693 0.01,0.27749 0.0222,0.17902 0.0122,-0.0985 0.0122,-0.25958 0,-0.35805 z m 8.69142,-0.45464 c 1.52247,-0.17616 3.34239,-0.52682 5.45305,-1.05068 0.78771,-0.19551 1.48798,-0.37935 1.55615,-0.40853 l 0.12394,-0.0531 v -6.71462 -6.71462 l -0.78496,-0.67341 c -0.43173,-0.37038 -0.9509,-0.77209 -1.1537,-0.89271 -1.16232,-0.69125 -2.4926,-0.76527 -3.72342,-0.20719 -0.90879,0.41206 -1.83434,1.3399 -2.34625,2.35206 -0.60077,1.18782 -1.14546,6.82942 -1.06231,11.00278 0.0317,1.59029 0.0807,2.07071 0.27884,2.73464 0.11342,0.37998 0.23377,0.52948 0.50365,0.6256 0.27751,0.0988 0.29859,0.0988 1.15501,-2.8e-4 z m -8.47296,-1.61103 c -0.0139,-0.053 -0.0252,-0.01 -0.0252,0.0964 0,0.10604 0.0113,0.14942 0.0252,0.0964 0.0139,-0.053 0.0139,-0.13978 0,-0.19279 z"
     id="path95"
     inkscape:connector-curvature="0"
     transform="scale(0.125)" />
  <path
     style="fill:#ffffff;stroke-width:0.05508475"
     d="m 111.98342,186.72912 c -6.7e-4,-1.71176 0.0127,-2.74047 0.0296,-2.28602 0.0288,0.77191 0.0327,0.79547 0.0599,0.35805 0.016,-0.25752 0.0285,0.39937 0.0277,1.45975 -0.001,1.59456 -0.006,1.72316 -0.0296,0.74364 -0.0276,-1.15755 -0.0289,-1.13887 -0.0573,0.82627 -0.0257,1.78044 -0.0292,1.65433 -0.0303,-1.10169 z"
     id="path97"
     inkscape:connector-curvature="0"
     transform="scale(0.125)" />
  <path
     style="fill:#ffffff;stroke-width:0.05508475"
     d="m 112.19988,185.352 c 0,-0.31812 0.009,-0.44825 0.0202,-0.2892 0.0111,0.15906 0.0111,0.41934 0,0.57839 -0.0111,0.15906 -0.0202,0.0289 -0.0202,-0.28919 z"
     id="path99"
     inkscape:connector-curvature="0"
     transform="scale(0.125)" />
  <rect
     style="fill:#ffffff;stroke:#ffffff;stroke-width:0.125"
     id="rect932"
     width="1.9210805"
     height="3.2431145"
     x="10.452331"
     y="21.049259" />
  <rect
     style="fill:#ffffff;stroke:#ffffff;stroke-width:0.125"
     id="rect934"
     width="4.6133475"
     height="3.8834746"
     x="11.870763"
     y="20.3125" />
</svg>
