<?xml version="1.0" encoding="UTF-8" standalone="no"?>
<!-- Generator: Adobe Illustrator 16.0.0, SVG Export Plug-In . SVG Version: 6.00 Build 0)  -->

<svg
   xmlns:dc="http://purl.org/dc/elements/1.1/"
   xmlns:cc="http://creativecommons.org/ns#"
   xmlns:rdf="http://www.w3.org/1999/02/22-rdf-syntax-ns#"
   xmlns:svg="http://www.w3.org/2000/svg"
   xmlns="http://www.w3.org/2000/svg"
   xmlns:sodipodi="http://sodipodi.sourceforge.net/DTD/sodipodi-0.dtd"
   xmlns:inkscape="http://www.inkscape.org/namespaces/inkscape"
   version="1.1"
   id="Capa_1"
   x="0px"
   y="0px"
   width="510px"
   height="510px"
   viewBox="0 0 510 510"
   style="enable-background:new 0 0 510 510;"
   xml:space="preserve"
   sodipodi:docname="linkedin.svg"
   inkscape:version="0.92.4 (5da689c313, 2019-01-14)"><metadata
   id="metadata42"><rdf:RDF><cc:Work
       rdf:about=""><dc:format>image/svg+xml</dc:format><dc:type
         rdf:resource="http://purl.org/dc/dcmitype/StillImage" /></cc:Work></rdf:RDF></metadata><defs
   id="defs40" /><sodipodi:namedview
   pagecolor="#ffffff"
   bordercolor="#666666"
   borderopacity="1"
   objecttolerance="10"
   gridtolerance="10"
   guidetolerance="10"
   inkscape:pageopacity="0"
   inkscape:pageshadow="2"
   inkscape:window-width="901"
   inkscape:window-height="811"
   id="namedview38"
   showgrid="false"
   inkscape:zoom="0.4627451"
   inkscape:cx="598.28772"
   inkscape:cy="255"
   inkscape:window-x="2939"
   inkscape:window-y="215"
   inkscape:window-maximized="0"
   inkscape:current-layer="Capa_1" />
<g
   id="g5">
	<g
   id="post-linkedin">
		<path
   d="M459,0H51C22.95,0,0,22.95,0,51v408c0,28.05,22.95,51,51,51h408c28.05,0,51-22.95,51-51V51C510,22.95,487.05,0,459,0z     M153,433.5H76.5V204H153V433.5z M114.75,160.65c-25.5,0-45.9-20.4-45.9-45.9s20.4-45.9,45.9-45.9s45.9,20.4,45.9,45.9    S140.25,160.65,114.75,160.65z M433.5,433.5H357V298.35c0-20.399-17.85-38.25-38.25-38.25s-38.25,17.851-38.25,38.25V433.5H204    V204h76.5v30.6c12.75-20.4,40.8-35.7,63.75-35.7c48.45,0,89.25,40.8,89.25,89.25V433.5z"
   id="path2" />
	</g>
</g>
<g
   id="g7">
</g>
<g
   id="g9">
</g>
<g
   id="g11">
</g>
<g
   id="g13">
</g>
<g
   id="g15">
</g>
<g
   id="g17">
</g>
<g
   id="g19">
</g>
<g
   id="g21">
</g>
<g
   id="g23">
</g>
<g
   id="g25">
</g>
<g
   id="g27">
</g>
<g
   id="g29">
</g>
<g
   id="g31">
</g>
<g
   id="g33">
</g>
<g
   id="g35">
</g>
<path
   style="fill:#ffffff;stroke:#ffffff;stroke-width:2.16101694"
   d="M 204.55043,319.1822 V 205.72881 h 37.8178 37.81779 v 15.07884 15.07883 l 8.83099,-9.58049 c 18.01517,-19.54414 45.6246,-29.71524 68.39814,-25.19734 28.84161,5.7217 55.0825,25.89673 67.13569,51.61657 l 5.82586,12.43156 0.63538,83.73941 0.63537,83.7394 h -36.83241 -36.83241 l -0.0475,-70.7733 c -0.0432,-64.44812 -0.40846,-71.56827 -4.08681,-79.66824 -10.49738,-23.11596 -41.02838,-29.82576 -59.98382,-13.18266 -13.48141,11.83683 -13.67852,13.16602 -13.67852,92.24123 v 71.38297 h -37.81779 -37.8178 z"
   id="path849"
   inkscape:connector-curvature="0" /><path
   style="fill:#ffffff;stroke:#ffffff;stroke-width:2.16101694"
   d="M 77.050431,319.1822 V 205.72881 h 37.817799 37.81779 V 319.1822 432.63559 H 114.86823 77.050431 Z"
   id="path851"
   inkscape:connector-curvature="0" /><path
   style="fill:#00ffff;stroke:#ffffff;stroke-width:2.16101694"
   d="M 101.09585,157.11081 C 83.158078,151.5161 70.567381,134.14146 70.567381,114.98278 c 0,-14.40517 3.889246,-23.124057 14.643808,-32.828378 17.631101,-15.909323 40.799611,-16.357551 58.148561,-1.124967 27.13569,23.825445 16.85144,68.234835 -17.82369,76.966135 -11.37515,2.8643 -12.55718,2.82151 -24.44021,-0.88476 z"
   id="path853"
   inkscape:connector-curvature="0" /><path
   style="fill:#00ffff;stroke:#ffffff;stroke-width:2.16101694"
   d="M 77.050431,319.1822 V 205.72881 h 37.817799 37.81779 V 319.1822 432.63559 H 114.86823 77.050431 Z"
   id="path855"
   inkscape:connector-curvature="0" /><path
   style="fill:#00ffff;stroke:#ffffff;stroke-width:2.16101694"
   d="M 204.55043,319.1822 V 205.72881 h 37.8178 37.81779 v 14.36008 14.36009 l 11.87988,-11.2355 c 17.31297,-16.37388 32.43088,-22.75519 54.03114,-22.80667 15.47251,-0.0369 18.99029,0.77848 33.49576,7.76379 19.88257,9.57471 34.62947,23.89341 44.22373,42.93957 l 7.07579,14.04661 1.56749,83.73941 1.56748,83.7394 h -37.86715 -37.86716 l -0.69543,-71.85381 c -0.77124,-79.68734 -0.60964,-78.73649 -15.62096,-91.9166 -16.9995,-14.92576 -45.81024,-9.33715 -56.9597,11.04883 -3.30266,6.03868 -3.83311,15.5189 -4.46433,79.78726 l -0.71633,72.93432 h -37.6429 -37.6429 z"
   id="path857"
   inkscape:connector-curvature="0" /><path
   style="fill:#ffffff;stroke:#ffffff;stroke-width:2.16101694"
   d="M 30.588567,504.16558 C 25.83433,501.9597 18.833298,496.87565 15.030717,492.8677 0.61452454,477.67289 1.4148382,491.66336 1.4148382,254.8454 V 40.179116 L 7.0407897,28.889302 C 10.135063,22.679903 15.925962,15.113559 19.909454,12.075201 35.507753,0.17779856 30.377016,0.43220339 254.72084,0.43220339 c 152.13254,0 209.93195,0.67840761 217.36999,2.55133271 13.65592,3.4385985 30.89807,20.4423589 34.66527,34.1859559 2.04983,7.478333 2.52136,58.892342 2.04138,222.584748 l -0.62417,212.86017 -4.76752,8.91248 c -5.39246,10.08072 -15.67648,19.52192 -25.95756,23.83025 -5.67924,2.37989 -46.47941,2.90534 -222.58474,2.86659 C 49.41405,508.1785 38.824488,507.98688 30.588567,504.16558 Z M 154.84704,319.1822 V 203.5678 H 114.86823 74.889414 v 115.6144 115.61441 h 39.978816 39.97881 z m 127.67185,56.7267 c 0.0944,-32.38824 0.83603,-66.86906 1.64784,-76.62402 1.3518,-16.24365 2.08235,-18.36188 8.68046,-25.16941 8.09043,-8.34721 22.80979,-13.50458 32.09222,-11.24446 10.15462,2.47248 21.35532,11.19623 25.57767,19.92131 3.60274,7.44473 4.10703,15.67489 4.91115,80.15048 l 0.89615,71.85381 h 39.94145 39.94145 l -1.57385,-84.81992 -1.57385,-84.81991 -7.44336,-14.84889 c -18.12639,-36.16066 -58.37114,-58.11555 -93.31312,-50.90551 -14.89023,3.07249 -24.21005,7.68605 -38.76041,19.18747 l -11.19565,8.84964 V 215.50363 203.5678 h -39.97881 -39.97882 v 115.6144 115.61441 h 39.97882 39.97881 l 0.1718,-58.88771 z M 137.53962,155.31124 c 6.62958,-3.36423 11.76595,-8.26122 16.20763,-15.45225 5.66057,-9.16441 6.50233,-12.55208 6.50233,-26.16869 0,-13.937652 -0.71665,-16.662137 -6.57901,-25.011232 -19.00593,-27.068023 -58.549421,-27.139944 -77.505101,-0.140963 -13.23888,18.856415 -9.098151,48.847785 8.608776,62.353525 15.978715,12.18755 34.414825,13.73176 52.765375,4.41961 z"
   id="path859"
   inkscape:connector-curvature="0" /><path
   style="fill:#000000;stroke:#ffffff;stroke-width:2.16101694"
   d="M 79.211448,319.1822 V 207.88983 h 35.656782 35.65678 V 319.1822 430.47458 H 114.86823 79.211448 Z"
   id="path861"
   inkscape:connector-curvature="0" /><path
   style="fill:#000000;stroke:#ffffff;stroke-width:2.16101694"
   d="M 97.178941,153.04591 C 81.76529,145.70536 74.226389,134.131 73.267429,116.33495 72.686874,105.56123 73.479626,101.51325 77.503086,94.706652 89.166129,74.975976 113.01181,66.800075 132.03548,76.009281 c 31.0476,15.029881 32.96389,60.592559 3.18733,75.783429 -13.81467,7.04772 -25.09624,7.41934 -38.043869,1.2532 z"
   id="path863"
   inkscape:connector-curvature="0" /><path
   style="fill:#000000;stroke:#ffffff;stroke-width:2.16101694"
   d="M 206.71145,319.1822 V 207.88983 h 35.65678 35.65678 v 14.04661 c 0,7.72564 0.5735,14.04661 1.27444,14.04661 0.70095,0 6.77881,-4.90818 13.50636,-10.90706 18.81965,-16.78127 31.08966,-21.91177 52.97513,-22.15069 16.49949,-0.18012 19.55454,0.47731 33.02007,7.10565 17.95634,8.83892 34.02104,24.47641 43.31151,42.15973 l 6.81213,12.9661 1.57372,82.6589 1.57374,82.6589 h -35.622 -35.622 l -1.35066,-68.61229 c -0.74287,-37.73676 -2.3364,-71.94269 -3.54119,-76.01317 -2.27592,-7.68937 -11.044,-18.29566 -18.43245,-22.29678 -13.62162,-7.3766 -30.87725,-5.71159 -44.04072,4.24952 -13.01478,9.84859 -13.61455,13.54186 -14.91482,91.84204 l -1.17622,70.83068 h -35.3303 -35.3303 z"
   id="path865"
   inkscape:connector-curvature="0" /></svg>