<?xml version="1.0" encoding="UTF-8" ?>
<svg version="1.1" width="34" height="14" xmlns="http://www.w3.org/2000/svg" shape-rendering="crispEdges">
<rect x="6" y="0" width="2" height="2" fill="#FFEE58" />
<rect x="8" y="0" width="2" height="2" fill="#FFEE58" />
<rect x="10" y="0" width="2" height="2" fill="#FFEE58" />
<rect x="12" y="0" width="2" height="2" fill="#FFEE58" />
<rect x="14" y="0" width="2" height="2" fill="#FFEE58" />
<rect x="16" y="0" width="2" height="2" fill="#FFEE58" />
<rect x="18" y="0" width="2" height="2" fill="#FFEE58" />
<rect x="20" y="0" width="2" height="2" fill="#FFEE58" />
<rect x="2" y="2" width="2" height="2" fill="#FFEE58" />
<rect x="4" y="2" width="2" height="2" fill="#FFEE58" />
<rect x="6" y="2" width="2" height="2" fill="#FFEE58" />
<rect x="8" y="2" width="2" height="2" fill="#FFEE58" />
<rect x="10" y="2" width="2" height="2" fill="#FFEE58" />
<rect x="12" y="2" width="2" height="2" fill="#FFEE58" />
<rect x="14" y="2" width="2" height="2" fill="#FFEE58" />
<rect x="16" y="2" width="2" height="2" fill="#FFEE58" />
<rect x="18" y="2" width="2" height="2" fill="#FFEE58" />
<rect x="20" y="2" width="2" height="2" fill="#FFEE58" />
<rect x="22" y="2" width="2" height="2" fill="#FFEE58" />
<rect x="24" y="2" width="2" height="2" fill="#FFEE58" />
<rect x="26" y="2" width="2" height="2" fill="#FFEE58" />
<rect x="28" y="2" width="2" height="2" fill="#FFEE58" />
<rect x="30" y="2" width="2" height="2" fill="#FFEE58" />
<rect x="0" y="4" width="2" height="2" fill="#FFEE58" />
<rect x="2" y="4" width="2" height="2" fill="#FFEE58" />
<rect x="4" y="4" width="2" height="2" fill="#FFEE58" />
<rect x="6" y="4" width="2" height="2" fill="#FFEE58" />
<rect x="8" y="4" width="2" height="2" fill="#FFEE58" />
<rect x="10" y="4" width="2" height="2" fill="#FFEE58" />
<rect x="12" y="4" width="2" height="2" fill="#FFEE58" />
<rect x="14" y="4" width="2" height="2" fill="#FFEE58" />
<rect x="16" y="4" width="2" height="2" fill="#FFEE58" />
<rect x="18" y="4" width="2" height="2" fill="#FFEE58" />
<rect x="20" y="4" width="2" height="2" fill="#FFEE58" />
<rect x="22" y="4" width="2" height="2" fill="#FFEE58" />
<rect x="24" y="4" width="2" height="2" fill="#FFEE58" />
<rect x="26" y="4" width="2" height="2" fill="#FFEE58" />
<rect x="28" y="4" width="2" height="2" fill="#FFEE58" />
<rect x="30" y="4" width="2" height="2" fill="#FFEE58" />
<rect x="32" y="4" width="2" height="2" fill="#FFEE58" />
<rect x="0" y="6" width="2" height="2" fill="#FFEE58" />
<rect x="2" y="6" width="2" height="2" fill="#FFEE58" />
<rect x="4" y="6" width="2" height="2" fill="#FFEE58" />
<rect x="6" y="6" width="2" height="2" fill="#FFEE58" />
<rect x="8" y="6" width="2" height="2" fill="#FFEE58" />
<rect x="10" y="6" width="2" height="2" fill="#FFEE58" />
<rect x="12" y="6" width="2" height="2" fill="#FFEE58" />
<rect x="14" y="6" width="2" height="2" fill="#FFEE58" />
<rect x="16" y="6" width="2" height="2" fill="#FFEE58" />
<rect x="18" y="6" width="2" height="2" fill="#FFEE58" />
<rect x="20" y="6" width="2" height="2" fill="#FFEE58" />
<rect x="22" y="6" width="2" height="2" fill="#FFEE58" />
<rect x="24" y="6" width="2" height="2" fill="#FFEE58" />
<rect x="26" y="6" width="2" height="2" fill="#FFEE58" />
<rect x="28" y="6" width="2" height="2" fill="#FFEE58" />
<rect x="30" y="6" width="2" height="2" fill="#FFEE58" />
<rect x="0" y="8" width="2" height="2" fill="#FFEE58" />
<rect x="2" y="8" width="2" height="2" fill="#FFEE58" />
<rect x="4" y="8" width="2" height="2" fill="#FFEE58" />
<rect x="0" y="10" width="2" height="2" fill="#FFEE58" />
<rect x="2" y="10" width="2" height="2" fill="#FFEE58" />
<rect x="4" y="10" width="2" height="2" fill="#FFEE58" />
<rect x="2" y="12" width="2" height="2" fill="#FFEE58" />
</svg>