<?xml version="1.0" encoding="UTF-8" ?>
<svg version="1.1" width="45" height="93" xmlns="http://www.w3.org/2000/svg" shape-rendering="crispEdges">
<rect x="15" y="0" width="3" height="3" fill="#2B2B2B" />
<rect x="18" y="0" width="3" height="3" fill="#2B2B2B" />
<rect x="21" y="0" width="3" height="3" fill="#2B2B2B" />
<rect x="24" y="0" width="3" height="3" fill="#2B2B2B" />
<rect x="27" y="0" width="3" height="3" fill="#2B2B2B" />
<rect x="30" y="0" width="3" height="3" fill="#2B2B2B" />
<rect x="12" y="3" width="3" height="3" fill="#2B2B2B" />
<rect x="15" y="3" width="3" height="3" fill="#000000" />
<rect x="18" y="3" width="3" height="3" fill="#000000" />
<rect x="21" y="3" width="3" height="3" fill="#000000" />
<rect x="24" y="3" width="3" height="3" fill="#000000" />
<rect x="27" y="3" width="3" height="3" fill="#000000" />
<rect x="30" y="3" width="3" height="3" fill="#000000" />
<rect x="33" y="3" width="3" height="3" fill="#2B2B2B" />
<rect x="9" y="6" width="3" height="3" fill="#2B2B2B" />
<rect x="12" y="6" width="3" height="3" fill="#000000" />
<rect x="15" y="6" width="3" height="3" fill="#000000" />
<rect x="18" y="6" width="3" height="3" fill="#000000" />
<rect x="21" y="6" width="3" height="3" fill="#000000" />
<rect x="24" y="6" width="3" height="3" fill="#000000" />
<rect x="27" y="6" width="3" height="3" fill="#000000" />
<rect x="30" y="6" width="3" height="3" fill="#000000" />
<rect x="33" y="6" width="3" height="3" fill="#000000" />
<rect x="36" y="6" width="3" height="3" fill="#2B2B2B" />
<rect x="6" y="9" width="3" height="3" fill="#2B2B2B" />
<rect x="9" y="9" width="3" height="3" fill="#000000" />
<rect x="12" y="9" width="3" height="3" fill="#000000" />
<rect x="15" y="9" width="3" height="3" fill="#000000" />
<rect x="18" y="9" width="3" height="3" fill="#000000" />
<rect x="21" y="9" width="3" height="3" fill="#000000" />
<rect x="24" y="9" width="3" height="3" fill="#000000" />
<rect x="27" y="9" width="3" height="3" fill="#000000" />
<rect x="30" y="9" width="3" height="3" fill="#000000" />
<rect x="33" y="9" width="3" height="3" fill="#000000" />
<rect x="36" y="9" width="3" height="3" fill="#000000" />
<rect x="39" y="9" width="3" height="3" fill="#2B2B2B" />
<rect x="6" y="12" width="3" height="3" fill="#2B2B2B" />
<rect x="9" y="12" width="3" height="3" fill="#000000" />
<rect x="12" y="12" width="3" height="3" fill="#000000" />
<rect x="15" y="12" width="3" height="3" fill="#000000" />
<rect x="18" y="12" width="3" height="3" fill="#000000" />
<rect x="21" y="12" width="3" height="3" fill="#000000" />
<rect x="24" y="12" width="3" height="3" fill="#000000" />
<rect x="27" y="12" width="3" height="3" fill="#000000" />
<rect x="30" y="12" width="3" height="3" fill="#000000" />
<rect x="33" y="12" width="3" height="3" fill="#000000" />
<rect x="36" y="12" width="3" height="3" fill="#000000" />
<rect x="39" y="12" width="3" height="3" fill="#2B2B2B" />
<rect x="6" y="15" width="3" height="3" fill="#2B2B2B" />
<rect x="9" y="15" width="3" height="3" fill="#000000" />
<rect x="12" y="15" width="3" height="3" fill="#000000" />
<rect x="15" y="15" width="3" height="3" fill="#000000" />
<rect x="18" y="15" width="3" height="3" fill="#000000" />
<rect x="21" y="15" width="3" height="3" fill="#000000" />
<rect x="24" y="15" width="3" height="3" fill="#000000" />
<rect x="27" y="15" width="3" height="3" fill="#000000" />
<rect x="30" y="15" width="3" height="3" fill="#000000" />
<rect x="33" y="15" width="3" height="3" fill="#000000" />
<rect x="36" y="15" width="3" height="3" fill="#000000" />
<rect x="39" y="15" width="3" height="3" fill="#2B2B2B" />
<rect x="6" y="18" width="3" height="3" fill="#2B2B2B" />
<rect x="9" y="18" width="3" height="3" fill="#000000" />
<rect x="12" y="18" width="3" height="3" fill="#000000" />
<rect x="15" y="18" width="3" height="3" fill="#000000" />
<rect x="18" y="18" width="3" height="3" fill="#000000" />
<rect x="21" y="18" width="3" height="3" fill="#000000" />
<rect x="24" y="18" width="3" height="3" fill="#EEEEEE" />
<rect x="27" y="18" width="3" height="3" fill="#000000" />
<rect x="30" y="18" width="3" height="3" fill="#000000" />
<rect x="33" y="18" width="3" height="3" fill="#EEEEEE" />
<rect x="36" y="18" width="3" height="3" fill="#000000" />
<rect x="39" y="18" width="3" height="3" fill="#2B2B2B" />
<rect x="6" y="21" width="3" height="3" fill="#2B2B2B" />
<rect x="9" y="21" width="3" height="3" fill="#000000" />
<rect x="12" y="21" width="3" height="3" fill="#000000" />
<rect x="15" y="21" width="3" height="3" fill="#000000" />
<rect x="18" y="21" width="3" height="3" fill="#000000" />
<rect x="21" y="21" width="3" height="3" fill="#000000" />
<rect x="24" y="21" width="3" height="3" fill="#EEEEEE" />
<rect x="27" y="21" width="3" height="3" fill="#000000" />
<rect x="30" y="21" width="3" height="3" fill="#000000" />
<rect x="33" y="21" width="3" height="3" fill="#EEEEEE" />
<rect x="36" y="21" width="3" height="3" fill="#000000" />
<rect x="39" y="21" width="3" height="3" fill="#2B2B2B" />
<rect x="6" y="24" width="3" height="3" fill="#2B2B2B" />
<rect x="9" y="24" width="3" height="3" fill="#000000" />
<rect x="12" y="24" width="3" height="3" fill="#000000" />
<rect x="15" y="24" width="3" height="3" fill="#000000" />
<rect x="18" y="24" width="3" height="3" fill="#000000" />
<rect x="21" y="24" width="3" height="3" fill="#000000" />
<rect x="24" y="24" width="3" height="3" fill="#EEEEEE" />
<rect x="27" y="24" width="3" height="3" fill="#000000" />
<rect x="30" y="24" width="3" height="3" fill="#000000" />
<rect x="33" y="24" width="3" height="3" fill="#EEEEEE" />
<rect x="36" y="24" width="3" height="3" fill="#000000" />
<rect x="39" y="24" width="3" height="3" fill="#2B2B2B" />
<rect x="9" y="27" width="3" height="3" fill="#2B2B2B" />
<rect x="12" y="27" width="3" height="3" fill="#000000" />
<rect x="15" y="27" width="3" height="3" fill="#000000" />
<rect x="18" y="27" width="3" height="3" fill="#000000" />
<rect x="21" y="27" width="3" height="3" fill="#000000" />
<rect x="24" y="27" width="3" height="3" fill="#000000" />
<rect x="27" y="27" width="3" height="3" fill="#000000" />
<rect x="30" y="27" width="3" height="3" fill="#000000" />
<rect x="33" y="27" width="3" height="3" fill="#000000" />
<rect x="36" y="27" width="3" height="3" fill="#2B2B2B" />
<rect x="12" y="30" width="3" height="3" fill="#2B2B2B" />
<rect x="15" y="30" width="3" height="3" fill="#000000" />
<rect x="18" y="30" width="3" height="3" fill="#000000" />
<rect x="21" y="30" width="3" height="3" fill="#000000" />
<rect x="24" y="30" width="3" height="3" fill="#000000" />
<rect x="27" y="30" width="3" height="3" fill="#000000" />
<rect x="30" y="30" width="3" height="3" fill="#000000" />
<rect x="33" y="30" width="3" height="3" fill="#2B2B2B" />
<rect x="15" y="33" width="3" height="3" fill="#2B2B2B" />
<rect x="18" y="33" width="3" height="3" fill="#000000" />
<rect x="21" y="33" width="3" height="3" fill="#000000" />
<rect x="24" y="33" width="3" height="3" fill="#000000" />
<rect x="27" y="33" width="3" height="3" fill="#000000" />
<rect x="30" y="33" width="3" height="3" fill="#2B2B2B" />
<rect x="12" y="36" width="3" height="3" fill="#5F5F5F" />
<rect x="15" y="36" width="3" height="3" fill="#B1B1B1" />
<rect x="18" y="36" width="3" height="3" fill="#B1B1B1" />
<rect x="21" y="36" width="3" height="3" fill="#B1B1B1" />
<rect x="24" y="36" width="3" height="3" fill="#B1B1B1" />
<rect x="27" y="36" width="3" height="3" fill="#B1B1B1" />
<rect x="30" y="36" width="3" height="3" fill="#B1B1B1" />
<rect x="33" y="36" width="3" height="3" fill="#2B2B2B" />
<rect x="36" y="36" width="3" height="3" fill="#5F5F5F" />
<rect x="9" y="39" width="3" height="3" fill="#5F5F5F" />
<rect x="12" y="39" width="3" height="3" fill="#6C6C6C" />
<rect x="15" y="39" width="3" height="3" fill="#5F5F5F" />
<rect x="18" y="39" width="3" height="3" fill="#000000" />
<rect x="21" y="39" width="3" height="3" fill="#000000" />
<rect x="24" y="39" width="3" height="3" fill="#000000" />
<rect x="27" y="39" width="3" height="3" fill="#000000" />
<rect x="30" y="39" width="3" height="3" fill="#000000" />
<rect x="33" y="39" width="3" height="3" fill="#000000" />
<rect x="36" y="39" width="3" height="3" fill="#2B2B2B" />
<rect x="39" y="39" width="3" height="3" fill="#5F5F5F" />
<rect x="6" y="42" width="3" height="3" fill="#5F5F5F" />
<rect x="9" y="42" width="3" height="3" fill="#6C6C6C" />
<rect x="12" y="42" width="3" height="3" fill="#6C6C6C" />
<rect x="15" y="42" width="3" height="3" fill="#5F5F5F" />
<rect x="18" y="42" width="3" height="3" fill="#000000" />
<rect x="21" y="42" width="3" height="3" fill="#000000" />
<rect x="24" y="42" width="3" height="3" fill="#000000" />
<rect x="27" y="42" width="3" height="3" fill="#000000" />
<rect x="30" y="42" width="3" height="3" fill="#000000" />
<rect x="33" y="42" width="3" height="3" fill="#000000" />
<rect x="36" y="42" width="3" height="3" fill="#000000" />
<rect x="39" y="42" width="3" height="3" fill="#2B2B2B" />
<rect x="3" y="45" width="3" height="3" fill="#5F5F5F" />
<rect x="6" y="45" width="3" height="3" fill="#6C6C6C" />
<rect x="9" y="45" width="3" height="3" fill="#6C6C6C" />
<rect x="12" y="45" width="3" height="3" fill="#5F5F5F" />
<rect x="15" y="45" width="3" height="3" fill="#000000" />
<rect x="18" y="45" width="3" height="3" fill="#000000" />
<rect x="21" y="45" width="3" height="3" fill="#000000" />
<rect x="24" y="45" width="3" height="3" fill="#000000" />
<rect x="27" y="45" width="3" height="3" fill="#000000" />
<rect x="30" y="45" width="3" height="3" fill="#000000" />
<rect x="33" y="45" width="3" height="3" fill="#000000" />
<rect x="36" y="45" width="3" height="3" fill="#000000" />
<rect x="39" y="45" width="3" height="3" fill="#2B2B2B" />
<rect x="0" y="48" width="3" height="3" fill="#5F5F5F" />
<rect x="3" y="48" width="3" height="3" fill="#6C6C6C" />
<rect x="6" y="48" width="3" height="3" fill="#6C6C6C" />
<rect x="9" y="48" width="3" height="3" fill="#5F5F5F" />
<rect x="12" y="48" width="3" height="3" fill="#000000" />
<rect x="15" y="48" width="3" height="3" fill="#000000" />
<rect x="18" y="48" width="3" height="3" fill="#000000" />
<rect x="21" y="48" width="3" height="3" fill="#000000" />
<rect x="24" y="48" width="3" height="3" fill="#000000" />
<rect x="27" y="48" width="3" height="3" fill="#000000" />
<rect x="30" y="48" width="3" height="3" fill="#000000" />
<rect x="33" y="48" width="3" height="3" fill="#000000" />
<rect x="36" y="48" width="3" height="3" fill="#000000" />
<rect x="39" y="48" width="3" height="3" fill="#2B2B2B" />
<rect x="0" y="51" width="3" height="3" fill="#5F5F5F" />
<rect x="3" y="51" width="3" height="3" fill="#6C6C6C" />
<rect x="6" y="51" width="3" height="3" fill="#5F5F5F" />
<rect x="9" y="51" width="3" height="3" fill="#000000" />
<rect x="12" y="51" width="3" height="3" fill="#000000" />
<rect x="15" y="51" width="3" height="3" fill="#000000" />
<rect x="18" y="51" width="3" height="3" fill="#000000" />
<rect x="21" y="51" width="3" height="3" fill="#000000" />
<rect x="24" y="51" width="3" height="3" fill="#000000" />
<rect x="27" y="51" width="3" height="3" fill="#000000" />
<rect x="30" y="51" width="3" height="3" fill="#000000" />
<rect x="33" y="51" width="3" height="3" fill="#000000" />
<rect x="36" y="51" width="3" height="3" fill="#000000" />
<rect x="39" y="51" width="3" height="3" fill="#2B2B2B" />
<rect x="0" y="54" width="3" height="3" fill="#5F5F5F" />
<rect x="3" y="54" width="3" height="3" fill="#6C6C6C" />
<rect x="6" y="54" width="3" height="3" fill="#5F5F5F" />
<rect x="9" y="54" width="3" height="3" fill="#000000" />
<rect x="12" y="54" width="3" height="3" fill="#000000" />
<rect x="15" y="54" width="3" height="3" fill="#000000" />
<rect x="18" y="54" width="3" height="3" fill="#000000" />
<rect x="21" y="54" width="3" height="3" fill="#000000" />
<rect x="24" y="54" width="3" height="3" fill="#000000" />
<rect x="27" y="54" width="3" height="3" fill="#000000" />
<rect x="30" y="54" width="3" height="3" fill="#000000" />
<rect x="33" y="54" width="3" height="3" fill="#000000" />
<rect x="36" y="54" width="3" height="3" fill="#000000" />
<rect x="39" y="54" width="3" height="3" fill="#2B2B2B" />
<rect x="0" y="57" width="3" height="3" fill="#5F5F5F" />
<rect x="3" y="57" width="3" height="3" fill="#6C6C6C" />
<rect x="6" y="57" width="3" height="3" fill="#6C6C6C" />
<rect x="9" y="57" width="3" height="3" fill="#5F5F5F" />
<rect x="12" y="57" width="3" height="3" fill="#000000" />
<rect x="15" y="57" width="3" height="3" fill="#000000" />
<rect x="18" y="57" width="3" height="3" fill="#000000" />
<rect x="21" y="57" width="3" height="3" fill="#000000" />
<rect x="24" y="57" width="3" height="3" fill="#000000" />
<rect x="27" y="57" width="3" height="3" fill="#000000" />
<rect x="30" y="57" width="3" height="3" fill="#000000" />
<rect x="33" y="57" width="3" height="3" fill="#000000" />
<rect x="36" y="57" width="3" height="3" fill="#000000" />
<rect x="39" y="57" width="3" height="3" fill="#2B2B2B" />
<rect x="3" y="60" width="3" height="3" fill="#5F5F5F" />
<rect x="6" y="60" width="3" height="3" fill="#6C6C6C" />
<rect x="9" y="60" width="3" height="3" fill="#6C6C6C" />
<rect x="12" y="60" width="3" height="3" fill="#5F5F5F" />
<rect x="15" y="60" width="3" height="3" fill="#000000" />
<rect x="18" y="60" width="3" height="3" fill="#000000" />
<rect x="21" y="60" width="3" height="3" fill="#000000" />
<rect x="24" y="60" width="3" height="3" fill="#000000" />
<rect x="27" y="60" width="3" height="3" fill="#000000" />
<rect x="30" y="60" width="3" height="3" fill="#000000" />
<rect x="33" y="60" width="3" height="3" fill="#000000" />
<rect x="36" y="60" width="3" height="3" fill="#000000" />
<rect x="39" y="60" width="3" height="3" fill="#2B2B2B" />
<rect x="6" y="63" width="3" height="3" fill="#5F5F5F" />
<rect x="9" y="63" width="3" height="3" fill="#6C6C6C" />
<rect x="12" y="63" width="3" height="3" fill="#6C6C6C" />
<rect x="15" y="63" width="3" height="3" fill="#5F5F5F" />
<rect x="18" y="63" width="3" height="3" fill="#000000" />
<rect x="21" y="63" width="3" height="3" fill="#000000" />
<rect x="24" y="63" width="3" height="3" fill="#000000" />
<rect x="27" y="63" width="3" height="3" fill="#000000" />
<rect x="30" y="63" width="3" height="3" fill="#000000" />
<rect x="33" y="63" width="3" height="3" fill="#000000" />
<rect x="36" y="63" width="3" height="3" fill="#B1B1B1" />
<rect x="39" y="63" width="3" height="3" fill="#6C6C6C" />
<rect x="42" y="63" width="3" height="3" fill="#5F5F5F" />
<rect x="6" y="66" width="3" height="3" fill="#2B2B2B" />
<rect x="9" y="66" width="3" height="3" fill="#5F5F5F" />
<rect x="12" y="66" width="3" height="3" fill="#6C6C6C" />
<rect x="15" y="66" width="3" height="3" fill="#6C6C6C" />
<rect x="18" y="66" width="3" height="3" fill="#5F5F5F" />
<rect x="21" y="66" width="3" height="3" fill="#000000" />
<rect x="24" y="66" width="3" height="3" fill="#000000" />
<rect x="27" y="66" width="3" height="3" fill="#000000" />
<rect x="30" y="66" width="3" height="3" fill="#000000" />
<rect x="33" y="66" width="3" height="3" fill="#B1B1B1" />
<rect x="36" y="66" width="3" height="3" fill="#000000" />
<rect x="39" y="66" width="3" height="3" fill="#6C6C6C" />
<rect x="42" y="66" width="3" height="3" fill="#6C6C6C" />
<rect x="6" y="69" width="3" height="3" fill="#2B2B2B" />
<rect x="9" y="69" width="3" height="3" fill="#000000" />
<rect x="12" y="69" width="3" height="3" fill="#5F5F5F" />
<rect x="15" y="69" width="3" height="3" fill="#5F5F5F" />
<rect x="18" y="69" width="3" height="3" fill="#B1B1B1" />
<rect x="21" y="69" width="3" height="3" fill="#B1B1B1" />
<rect x="24" y="69" width="3" height="3" fill="#B1B1B1" />
<rect x="27" y="69" width="3" height="3" fill="#B1B1B1" />
<rect x="30" y="69" width="3" height="3" fill="#B1B1B1" />
<rect x="33" y="69" width="3" height="3" fill="#000000" />
<rect x="36" y="69" width="3" height="3" fill="#000000" />
<rect x="39" y="69" width="3" height="3" fill="#2B2B2B" />
<rect x="42" y="69" width="3" height="3" fill="#5F5F5F" />
<rect x="6" y="72" width="3" height="3" fill="#2B2B2B" />
<rect x="9" y="72" width="3" height="3" fill="#000000" />
<rect x="12" y="72" width="3" height="3" fill="#000000" />
<rect x="15" y="72" width="3" height="3" fill="#000000" />
<rect x="18" y="72" width="3" height="3" fill="#000000" />
<rect x="21" y="72" width="3" height="3" fill="#000000" />
<rect x="24" y="72" width="3" height="3" fill="#000000" />
<rect x="27" y="72" width="3" height="3" fill="#000000" />
<rect x="30" y="72" width="3" height="3" fill="#000000" />
<rect x="33" y="72" width="3" height="3" fill="#000000" />
<rect x="36" y="72" width="3" height="3" fill="#000000" />
<rect x="39" y="72" width="3" height="3" fill="#2B2B2B" />
<rect x="6" y="75" width="3" height="3" fill="#2B2B2B" />
<rect x="9" y="75" width="3" height="3" fill="#000000" />
<rect x="12" y="75" width="3" height="3" fill="#000000" />
<rect x="15" y="75" width="3" height="3" fill="#000000" />
<rect x="18" y="75" width="3" height="3" fill="#000000" />
<rect x="21" y="75" width="3" height="3" fill="#000000" />
<rect x="24" y="75" width="3" height="3" fill="#000000" />
<rect x="27" y="75" width="3" height="3" fill="#000000" />
<rect x="30" y="75" width="3" height="3" fill="#000000" />
<rect x="33" y="75" width="3" height="3" fill="#000000" />
<rect x="36" y="75" width="3" height="3" fill="#000000" />
<rect x="39" y="75" width="3" height="3" fill="#2B2B2B" />
<rect x="6" y="78" width="3" height="3" fill="#2B2B2B" />
<rect x="9" y="78" width="3" height="3" fill="#000000" />
<rect x="12" y="78" width="3" height="3" fill="#000000" />
<rect x="15" y="78" width="3" height="3" fill="#2B2B2B" />
<rect x="18" y="78" width="3" height="3" fill="#2B2B2B" />
<rect x="21" y="78" width="3" height="3" fill="#2B2B2B" />
<rect x="24" y="78" width="3" height="3" fill="#2B2B2B" />
<rect x="27" y="78" width="3" height="3" fill="#2B2B2B" />
<rect x="30" y="78" width="3" height="3" fill="#2B2B2B" />
<rect x="33" y="78" width="3" height="3" fill="#2B2B2B" />
<rect x="36" y="78" width="3" height="3" fill="#000000" />
<rect x="39" y="78" width="3" height="3" fill="#2B2B2B" />
<rect x="6" y="81" width="3" height="3" fill="#2B2B2B" />
<rect x="9" y="81" width="3" height="3" fill="#000000" />
<rect x="12" y="81" width="3" height="3" fill="#2B2B2B" />
<rect x="33" y="81" width="3" height="3" fill="#2B2B2B" />
<rect x="36" y="81" width="3" height="3" fill="#000000" />
<rect x="39" y="81" width="3" height="3" fill="#2B2B2B" />
<rect x="6" y="84" width="3" height="3" fill="#2B2B2B" />
<rect x="9" y="84" width="3" height="3" fill="#000000" />
<rect x="12" y="84" width="3" height="3" fill="#2B2B2B" />
<rect x="33" y="84" width="3" height="3" fill="#2B2B2B" />
<rect x="36" y="84" width="3" height="3" fill="#000000" />
<rect x="39" y="84" width="3" height="3" fill="#2B2B2B" />
<rect x="6" y="87" width="3" height="3" fill="#2B2B2B" />
<rect x="9" y="87" width="3" height="3" fill="#000000" />
<rect x="12" y="87" width="3" height="3" fill="#2B2B2B" />
<rect x="33" y="87" width="3" height="3" fill="#2B2B2B" />
<rect x="36" y="87" width="3" height="3" fill="#000000" />
<rect x="39" y="87" width="3" height="3" fill="#2B2B2B" />
<rect x="6" y="90" width="3" height="3" fill="#2B2B2B" />
<rect x="9" y="90" width="3" height="3" fill="#2B2B2B" />
<rect x="12" y="90" width="3" height="3" fill="#2B2B2B" />
<rect x="15" y="90" width="3" height="3" fill="#2B2B2B" />
<rect x="33" y="90" width="3" height="3" fill="#2B2B2B" />
<rect x="36" y="90" width="3" height="3" fill="#2B2B2B" />
<rect x="39" y="90" width="3" height="3" fill="#2B2B2B" />
<rect x="42" y="90" width="3" height="3" fill="#2B2B2B" />
</svg>